<svg width="12" height="10" viewBox="0 0 12 10" fill="none" xmlns="http://www.w3.org/2000/svg">
<path fill-rule="evenodd" clip-rule="evenodd" d="M9.2849 1.50243C8.69058 2.0566 7.79998 2.88688 7.30577 3.34749C6.81157 3.80809 6.2472 4.3343 6.05159 4.51681C5.856 4.69936 5.41047 5.11423 5.06153 5.43876L4.42709 6.02884L4.36364 5.95471C4.32875 5.91396 3.76463 5.30728 3.11006 4.60652L1.91993 3.33244L1.85387 3.3922C1.81753 3.42509 1.50231 3.72077 1.15337 4.04926C0.804426 4.37777 0.458427 4.70255 0.384476 4.77105L0.25 4.89552L0.712508 5.39039C0.966868 5.66256 1.39281 6.11883 1.65904 6.40433C2.58198 7.39403 3.30851 8.17191 3.81218 8.70963L4.31834 9.25L4.44883 9.12826C4.52063 9.06132 4.98456 8.62972 5.4798 8.16917C5.97505 7.70859 6.55764 7.16619 6.77447 6.9638C6.99127 6.76142 7.56787 6.22468 8.05584 5.77105C8.54377 5.31743 9.20024 4.70628 9.51464 4.41294C9.82905 4.1196 10.4898 3.50422 10.983 3.04542C11.4762 2.58664 11.8855 2.19603 11.8927 2.17745C11.9038 2.14824 10.4341 0.514935 10.3831 0.500013C10.3734 0.497171 9.8792 0.948259 9.2849 1.50243Z" fill="white"/>
</svg>
