<svg width="17" height="17" viewBox="0 0 17 17" fill="none" xmlns="http://www.w3.org/2000/svg">
<path d="M1.38377 1.38426C1.65334 1.11477 2.01891 0.963379 2.40008 0.963379C2.78126 0.963379 3.14683 1.11477 3.4164 1.38426L8.4994 6.46726L13.5824 1.38426C13.8535 1.12241 14.2166 0.977515 14.5935 0.98079C14.9704 0.984066 15.331 1.13525 15.5975 1.40177C15.864 1.66829 16.0152 2.02884 16.0185 2.40575C16.0218 2.78265 15.8769 3.14577 15.615 3.41688L10.532 8.49988L15.615 13.5829C15.8769 13.854 16.0218 14.2171 16.0185 14.594C16.0152 14.9709 15.864 15.3315 15.5975 15.598C15.331 15.8645 14.9704 16.0157 14.5935 16.019C14.2166 16.0223 13.8535 15.8774 13.5824 15.6155L8.4994 10.5325L3.4164 15.6155C3.14528 15.8774 2.78217 16.0223 2.40526 16.019C2.02835 16.0157 1.66781 15.8645 1.40128 15.598C1.13476 15.3315 0.983577 14.9709 0.980302 14.594C0.977027 14.2171 1.12192 13.854 1.38377 13.5829L6.46677 8.49988L1.38377 3.41688C1.11428 3.14731 0.962891 2.78175 0.962891 2.40057C0.962891 2.0194 1.11428 1.65383 1.38377 1.38426Z" fill="white"/>
</svg>
