<svg width="12" height="10" viewBox="0 0 12 10" fill="none" xmlns="http://www.w3.org/2000/svg">
<path fill-rule="evenodd" clip-rule="evenodd" d="M8.99309 1.83891C8.4109 2.38177 7.53848 3.1951 7.05436 3.64631C6.57024 4.09751 6.01738 4.61298 5.82576 4.79177C5.63417 4.97059 5.19773 5.37699 4.85591 5.6949L4.23442 6.27294L4.17227 6.20032C4.13809 6.1604 3.58548 5.5661 2.94427 4.87965L1.77842 3.63157L1.71371 3.69011C1.67811 3.72233 1.36933 4.01197 1.02751 4.33376C0.685689 4.65557 0.346751 4.97372 0.27431 5.04082L0.142578 5.16275L0.595647 5.64752C0.844816 5.91414 1.26206 6.36109 1.52287 6.64076C2.42696 7.61027 3.13867 8.37227 3.63206 8.89902L4.12789 9.42836L4.25572 9.30911C4.32605 9.24353 4.78051 8.82074 5.26565 8.36959C5.75079 7.91841 6.32149 7.38708 6.53389 7.18882C6.74627 6.99057 7.31111 6.46478 7.78911 6.02041C8.26709 5.57605 8.91016 4.97737 9.21815 4.69002C9.52614 4.40267 10.1734 3.79984 10.6565 3.3504C11.1396 2.90099 11.5406 2.51835 11.5476 2.50015C11.5586 2.47154 10.1188 0.871564 10.0689 0.856947C10.0594 0.854162 9.57526 1.29604 8.99309 1.83891Z" fill="white"/>
</svg>
