<svg width="47" height="35" viewBox="0 0 47 35" fill="none" xmlns="http://www.w3.org/2000/svg">
<path fill-rule="evenodd" clip-rule="evenodd" d="M36.1396 4.00972C33.7623 6.22641 30.1999 9.54753 28.2231 11.39C26.2463 13.2324 23.9888 15.3372 23.2063 16.0673C22.424 16.7974 20.6419 18.4569 19.2461 19.755L16.7083 22.1154L16.4546 21.8188C16.315 21.6558 14.0585 19.2291 11.4402 16.4261L6.6797 11.3298L6.41547 11.5688C6.27011 11.7004 5.00924 12.8831 3.61347 14.197C2.2177 15.5111 0.833706 16.8102 0.537904 17.0842L0 17.5821L1.85003 19.5616C2.86747 20.6503 4.57123 22.4753 5.63617 23.6173C9.32791 27.5761 12.2341 30.6876 14.2487 32.8385L16.2734 35L16.7953 34.5131C17.0825 34.2453 18.9382 32.5189 20.9192 30.6767C22.9002 28.8343 25.2306 26.6648 26.0979 25.8552C26.9651 25.0457 29.2715 22.8987 31.2233 21.0842C33.1751 19.2697 35.801 16.8251 37.0586 15.6518C38.3162 14.4784 40.9592 12.0169 42.932 10.1817C44.9046 8.34656 46.5421 6.78411 46.5706 6.7098C46.6154 6.59297 40.7362 0.0597417 40.5325 5.34345e-05C40.4936 -0.0113158 38.5168 1.79304 36.1396 4.00972Z" fill="white"/>
</svg>
