<svg width="15" height="15" viewBox="0 0 15 15" fill="none" xmlns="http://www.w3.org/2000/svg">
<path fill-rule="evenodd" clip-rule="evenodd" d="M1.04498 1.04878L0 2.09759L2.67388 4.79069C4.14454 6.27189 5.3478 7.49108 5.3478 7.5C5.3478 7.50892 4.1446 8.72812 2.67398 10.2093L0.000129716 12.9024L1.04508 13.9512L2.09 15L4.77498 12.2964L7.45996 9.59282L10.1449 12.2964L12.8299 15L13.8748 13.9512L14.9198 12.9024L12.2459 10.2093C10.7753 8.72812 9.57209 7.50892 9.57209 7.5C9.57209 7.49108 10.7753 6.27189 12.2459 4.79069L14.9198 2.09759L13.8748 1.04878L12.8299 0L10.1449 2.70357L7.45996 5.40718L4.77498 2.70357L2.09 0L1.04498 1.04878Z" fill="white"/>
</svg>
