<svg width="15" height="15" viewBox="0 0 15 15" fill="none" xmlns="http://www.w3.org/2000/svg">
<path fill-rule="evenodd" clip-rule="evenodd" d="M3.01813 0.0346968C1.97824 0.200357 1.13562 0.749916 0.548259 1.64551C0.11662 2.3037 -0.0846664 3.22508 0.0332541 4.0032C0.156403 4.81614 0.521044 5.52948 1.09149 6.07335C1.77657 6.72654 2.57467 7.04653 3.51624 7.04552C5.10072 7.0438 6.44087 6.02156 6.90038 4.4641C7.01758 4.06679 7.04931 3.30065 6.96565 2.88778C6.80905 2.11492 6.47195 1.4982 5.91703 0.969454C5.63108 0.697013 5.42174 0.551098 5.04788 0.363744C4.44087 0.0595084 3.65849 -0.0673105 3.01813 0.0346968ZM6.68415 6.69238C3.21211 10.1774 0.3674 13.0455 0.362594 13.0658C0.357787 13.0861 0.705638 13.4535 1.13565 13.8822L1.91745 14.6616L8.24748 8.31251C11.729 4.82053 14.5743 1.94529 14.5704 1.92311C14.5628 1.8796 13.0538 0.355885 13.0184 0.355885C13.0066 0.355885 10.1562 3.20731 6.68415 6.69238ZM3.88952 2.31068C4.20074 2.40574 4.4941 2.66506 4.65112 2.98388C4.77875 3.243 4.81012 3.61291 4.72796 3.8896C4.4623 4.78419 3.34747 5.09557 2.66787 4.46498C2.22467 4.05373 2.12357 3.44705 2.40907 2.91142C2.6831 2.39726 3.32298 2.13762 3.88952 2.31068ZM10.816 7.99191C10.3065 8.07654 9.64622 8.38467 9.20487 8.74386C8.67288 9.1768 8.23576 9.84567 8.03294 10.5371C7.91649 10.9342 7.88541 11.7008 7.96903 12.1134C8.12563 12.8863 8.46273 13.503 9.01765 14.0318C10.2989 15.2526 12.2365 15.3271 13.6269 14.2089C14.8856 13.1967 15.2875 11.4401 14.5954 9.97613C14.2569 9.26 13.6704 8.6563 12.972 8.30514C12.7414 8.18917 12.3386 8.05576 12.0557 8.00162C11.7892 7.95063 11.0972 7.94524 10.816 7.99191ZM11.8921 10.2918C12.1158 10.3773 12.3968 10.623 12.518 10.839C13.0382 11.7669 12.2833 12.8775 11.2332 12.7291C10.3164 12.5995 9.84826 11.4966 10.3893 10.7409C10.7339 10.2598 11.3369 10.0796 11.8921 10.2918Z" fill="white"/>
</svg>
