<svg width="14" height="10" viewBox="0 0 14 10" fill="none" xmlns="http://www.w3.org/2000/svg">
<path fill-rule="evenodd" clip-rule="evenodd" d="M0.896403 0.0451912C0.214915 0.228332 -0.16709 0.988094 0.0863181 1.65637C0.21032 1.98337 0.290993 2.05139 1.57497 2.91153C5.21646 5.35095 6.07166 5.91468 6.22864 5.97917C6.46477 6.07612 6.81764 6.078 7.06188 5.98362C7.21514 5.9244 7.95536 5.43596 11.9373 2.76669C12.9882 2.06228 13.0885 1.97467 13.2092 1.65637C13.4194 1.10218 13.1925 0.459888 12.6807 0.160001C12.3903 -0.0101326 12.7251 -0.0013165 6.63447 0.000764647C1.81792 0.00241222 1.03304 0.00848208 0.896403 0.0451912ZM8.20975e-06 5.8576C0.000383972 9.12722 -0.0029685 9.04556 0.142856 9.34681C0.21876 9.50362 0.441558 9.73419 0.615883 9.83634C0.910827 10.0092 0.568421 9.99991 6.64776 9.99991C11.5854 9.99991 12.2337 9.99485 12.3865 9.95505C12.8264 9.84053 13.1683 9.47561 13.2653 9.01715C13.29 8.90049 13.2966 8.05294 13.2902 5.83216L13.2814 2.80618L12.8623 3.08754C9.56677 5.29988 7.59171 6.6095 7.46875 6.66387C6.95618 6.89057 6.33949 6.89063 5.82721 6.66407C5.69746 6.60669 4.38943 5.73987 0.852353 3.36722C0.423117 3.0793 0.055679 2.83369 0.0357925 2.82147C0.00697446 2.80372 -0.000280838 3.41821 8.20975e-06 5.8576Z" fill="white"/>
</svg>
