<svg width="9" height="12" viewBox="0 0 9 12" fill="none" xmlns="http://www.w3.org/2000/svg">
<path fill-rule="evenodd" clip-rule="evenodd" d="M3.97418 0.016841C2.24487 0.189877 0.772597 1.36083 0.226348 2.99769C0.0823639 3.42909 0 3.92652 0 4.36459C0 5.41125 0.745429 7.07041 2.20178 9.26521C2.75747 10.1027 3.56427 11.222 4.00827 11.7716C4.20232 12.0117 4.42452 12.0657 4.61198 11.9183C4.70794 11.8428 5.63818 10.5967 6.13784 9.87438C7.86181 7.382 8.7515 5.50647 8.7515 4.36459C8.7515 2.91791 8.00729 1.55101 6.76164 0.709733C6.5035 0.535395 5.95296 0.279275 5.63585 0.186027C5.10774 0.0307161 4.47711 -0.0334801 3.97418 0.016841ZM4.74697 2.45164C5.05529 2.53051 5.27319 2.65503 5.49738 2.88049C5.70481 3.08912 5.84301 3.32427 5.91321 3.58803C5.96772 3.79283 5.96608 4.23013 5.91014 4.42053C5.70514 5.11799 5.08207 5.59204 4.37373 5.58947C3.66247 5.58689 3.04594 5.11658 2.84136 4.42053C2.78541 4.23013 2.78378 3.79283 2.83828 3.58803C2.90879 3.32308 3.04646 3.08914 3.25406 2.88146C3.66502 2.47033 4.20836 2.31389 4.74697 2.45164Z" fill="white"/>
</svg>
