<svg width="45" height="45" viewBox="0 0 45 45" fill="none" xmlns="http://www.w3.org/2000/svg">
<g filter="url(#filter0_i_34_546)">
<path fill-rule="evenodd" clip-rule="evenodd" d="M0 22.5V38C0 41.866 3.13401 45 7 45H22.5H38C41.866 45 45 41.866 45 38V22.5V7C45 3.13401 41.866 0 38 0H22.5H7C3.13401 0 0 3.13401 0 7V22.5ZM32.04 11.7155V11.8676C32.04 12.5092 31.6475 13.0855 31.0504 13.3205C30.4533 13.5555 30.0608 14.1319 30.0607 14.7735L30.0604 20.355L30.0601 25.77C30.06 26.4493 30.6107 27 31.29 27C31.9693 27 32.52 27.5507 32.52 28.23V30.7809V32.8083C32.52 33.7742 31.7324 34.5547 30.7666 34.5459C29.7596 34.5368 28.9115 33.7906 28.7743 32.7929L28.7409 32.55C28.5847 31.4146 27.616 30.5677 26.4699 30.5646L22.791 30.5547L17.3118 30.5399C17.1971 30.5396 17.0987 30.6218 17.0785 30.7347C17.0593 30.8421 16.9327 31.7265 16.7971 32.7C16.6616 33.6735 16.5308 34.4906 16.5065 34.5158C16.4822 34.541 15.5731 34.5545 14.4862 34.5458C13.3909 34.5371 12.5064 33.6491 12.5019 32.5538L12.4945 30.765L12.4838 28.1389C12.4812 27.5107 12.9898 27 13.618 27H14.5595C14.6808 27 14.7919 26.9323 14.8476 26.8246C14.8975 26.7281 15.0755 26.2384 15.2432 25.7362C16.2042 22.8587 16.745 19.3656 16.9525 14.6965C16.9759 14.1698 16.6739 13.6826 16.1917 13.4692L15.9956 13.3825C15.3904 13.1147 15 12.5151 15 11.8533V11.721C15 11.0467 15.5467 10.5 16.221 10.5H23.52H30.8245C31.4958 10.5 32.04 11.0442 32.04 11.7155ZM21.54 14.0896C21.54 14.3001 21.3361 17.1011 21.2379 18.24C20.9589 21.475 20.5957 24.1962 20.1619 26.3016C20.0948 26.627 20.04 26.9173 20.04 26.9466C20.04 26.9768 21.0031 27 22.26 27C23.4861 27 24.48 26.0061 24.48 24.78V20.52V15.51C24.48 14.6981 23.8219 14.04 23.01 14.04C22.2015 14.04 21.54 14.0623 21.54 14.0896Z" fill="#EC2739"/>
</g>
<defs>
<filter id="filter0_i_34_546" x="0" y="0" width="45" height="45" filterUnits="userSpaceOnUse" color-interpolation-filters="sRGB">
<feFlood flood-opacity="0" result="BackgroundImageFix"/>
<feBlend mode="normal" in="SourceGraphic" in2="BackgroundImageFix" result="shape"/>
<feColorMatrix in="SourceAlpha" type="matrix" values="0 0 0 0 0 0 0 0 0 0 0 0 0 0 0 0 0 0 127 0" result="hardAlpha"/>
<feOffset/>
<feGaussianBlur stdDeviation="5"/>
<feComposite in2="hardAlpha" operator="arithmetic" k2="-1" k3="1"/>
<feColorMatrix type="matrix" values="0 0 0 0 1 0 0 0 0 1 0 0 0 0 1 0 0 0 0.3 0"/>
<feBlend mode="normal" in2="shape" result="effect1_innerShadow_34_546"/>
</filter>
</defs>
</svg>
