<svg width="15" height="15" viewBox="0 0 15 15" fill="none" xmlns="http://www.w3.org/2000/svg">
<path fill-rule="evenodd" clip-rule="evenodd" d="M3.21954 0.0142406C2.66307 0.139575 1.3039 1.55717 0.389552 2.96586C0.281994 3.13153 0.146992 3.36757 0.0895047 3.49041C-0.0142073 3.71204 -0.014727 3.7161 0.0225234 4.02082C0.203785 5.50415 1.05344 7.37513 2.31916 9.078C4.62768 12.184 8.05312 14.5518 10.8408 14.9686C11.2618 15.0316 11.3032 15.0213 11.7908 14.7333C12.6804 14.2078 14.0945 13.0084 14.5805 12.3671C14.9709 11.852 15.0211 11.6333 14.8359 11.2547C14.7149 11.0073 14.5744 10.868 14.1525 10.5767C12.4901 9.42885 11.26 8.77924 10.7531 8.78139C10.4012 8.78288 10.1543 8.96778 9.56282 9.6729C9.38297 9.88733 9.21374 10.0627 9.18678 10.0627C9.11086 10.0627 8.6503 9.87267 8.3005 9.69699C7.01634 9.05205 5.94748 7.98045 5.29541 6.68421C5.10788 6.31139 4.89928 5.80742 4.91567 5.76671C4.92121 5.75295 5.11287 5.57803 5.34157 5.37795C6.06086 4.74875 6.19777 4.56412 6.19739 4.22395C6.19684 3.73488 5.64688 2.65209 4.61035 1.09918C4.11639 0.359162 3.9949 0.223536 3.71454 0.0991713C3.50032 0.00415684 3.36636 -0.018817 3.21954 0.0142406Z" fill="#7F7F7F"/>
</svg>
