<svg width="14" height="13" viewBox="0 0 14 13" fill="none" xmlns="http://www.w3.org/2000/svg">
<path fill-rule="evenodd" clip-rule="evenodd" d="M0.593136 0.139311C0.356397 0.252451 0.271778 0.330112 0.143125 0.552139C-0.0149563 0.825106 -0.0152298 0.827007 0.0166052 1.50244C0.130872 3.92737 1.00743 6.15499 2.62992 8.14392C3.14114 8.77057 4.41274 9.93385 5.09774 10.4015C7.27187 11.8858 9.70692 12.6877 12.3577 12.7922C13.096 12.8213 13.0981 12.8211 13.3964 12.6765C13.6391 12.5588 13.724 12.4814 13.8477 12.2648L14 11.9981V10.6261C14 9.15823 13.98 9.02988 13.7102 8.76527C13.4665 8.52623 13.2277 8.45987 12.4216 8.40718C11.6385 8.35599 11.1962 8.28619 10.5268 8.10814C9.84028 7.92555 9.75528 7.95407 8.60014 8.75456C8.0759 9.11785 7.68108 9.35814 7.63502 9.34198C7.41032 9.26311 6.47414 8.69046 6.00246 8.34333C5.22776 7.77328 4.43609 6.89673 3.90546 6.02149L3.74874 5.76298L4.42548 4.94563C4.79771 4.49607 5.13707 4.03821 5.17962 3.92812C5.27223 3.68858 5.25511 3.52855 5.06973 2.90006C4.90711 2.34882 4.81051 1.77101 4.81051 1.34992C4.81051 0.696553 4.58728 0.284476 4.13065 0.0947254C3.93149 0.0119596 3.74841 0.00210164 2.3963 0.00110084L0.884629 0L0.593136 0.139311Z" fill="white"/>
</svg>
