<svg width="12" height="15" viewBox="0 0 12 15" fill="none" xmlns="http://www.w3.org/2000/svg">
<path fill-rule="evenodd" clip-rule="evenodd" d="M6.78023 0.128032C5.14083 1.22021 4.20124 3.49228 4.1857 6.40208C4.18332 6.84833 4.17194 7.01797 4.14438 7.01797C4.07253 7.01797 3.78843 6.81626 3.5846 6.6205C3.11899 6.17343 2.85919 5.55744 2.80314 4.76775C2.79192 4.60989 2.7726 4.48075 2.76014 4.48075C2.7157 4.48075 2.31691 4.75331 2.09321 4.93661C1.19399 5.67328 0.522445 6.69506 0.20448 7.81033C0.0279809 8.42938 -0.0154771 8.81197 0.0044628 9.57145C0.0229715 10.2775 0.0756674 10.5861 0.283849 11.2075C0.943623 13.1768 2.66929 14.6231 4.76047 14.9595C5.09626 15.0135 6.08422 15.0135 6.41942 14.9594C8.27721 14.6598 9.83067 13.5125 10.6342 11.8467C11.4605 10.1337 11.3776 8.0322 10.4151 6.28897C10.0973 5.71342 9.68826 5.14625 8.84132 4.10668C7.55918 2.53292 7.13934 1.68116 7.01157 0.394407L6.9724 0L6.78023 0.128032ZM8.20373 7.12369C8.41816 8.2761 8.44477 9.64649 8.26928 10.4985C7.97922 11.9067 7.2258 12.7975 6.09414 13.0701C5.35024 13.2494 4.63254 13.0485 4.08909 12.5089C3.65174 12.0747 3.45426 11.5551 3.48568 10.9214C3.51379 10.3544 3.69569 9.94848 4.10512 9.53905C4.42335 9.22082 4.67027 9.08863 5.25399 8.924C6.21238 8.65372 6.91252 8.28615 7.45366 7.76921C7.71841 7.5163 7.99597 7.13702 8.06142 6.93873C8.08247 6.87497 8.11051 6.8228 8.12371 6.8228C8.13695 6.8228 8.17296 6.95818 8.20373 7.12369Z" fill="white"/>
</svg>
