<svg width="12" height="9" viewBox="0 0 12 9" fill="none" xmlns="http://www.w3.org/2000/svg">
<path fill-rule="evenodd" clip-rule="evenodd" d="M8.99309 1.33891C8.4109 1.88177 7.53848 2.6951 7.05436 3.14631C6.57024 3.59751 6.01738 4.11298 5.82576 4.29177C5.63417 4.47059 5.19773 4.87699 4.85591 5.1949L4.23442 5.77294L4.17227 5.70032C4.13809 5.6604 3.58548 5.0661 2.94427 4.37965L1.77842 3.13157L1.71371 3.19011C1.67811 3.22233 1.36933 3.51197 1.02751 3.83376C0.685689 4.15557 0.346751 4.47372 0.27431 4.54082L0.142578 4.66275L0.595647 5.14752C0.844816 5.41414 1.26206 5.86109 1.52287 6.14076C2.42696 7.11027 3.13867 7.87227 3.63206 8.39902L4.12789 8.92836L4.25572 8.80911C4.32605 8.74353 4.78051 8.32074 5.26565 7.86959C5.75079 7.41841 6.32149 6.88708 6.53389 6.68882C6.74627 6.49057 7.31111 5.96478 7.78911 5.52041C8.26709 5.07605 8.91016 4.47737 9.21815 4.19002C9.52614 3.90267 10.1734 3.29984 10.6565 2.8504C11.1396 2.40099 11.5406 2.01835 11.5476 2.00015C11.5586 1.97154 10.1188 0.371564 10.0689 0.356947C10.0594 0.354162 9.57526 0.796044 8.99309 1.33891Z" fill="white"/>
</svg>
