<svg width="16" height="15" viewBox="0 0 16 15" fill="none" xmlns="http://www.w3.org/2000/svg">
<path fill-rule="evenodd" clip-rule="evenodd" d="M7.52102 0.087777C7.43017 0.148956 7.34189 0.274116 7.23013 0.500371C7.14185 0.679033 6.65296 1.67102 6.14368 2.70481C5.63441 3.7386 5.21391 4.58827 5.20926 4.59295C5.20017 4.60201 3.20168 4.8957 1.46076 5.1438C0.808174 5.23683 0.357314 5.31916 0.279632 5.3595C0.0329581 5.48765 -0.0750072 5.84313 0.0563704 6.09487C0.0861155 6.15187 0.889234 6.95763 1.84108 7.88549C3.14299 9.15455 3.57171 9.59459 3.57171 9.66172C3.57171 9.71077 3.487 10.2383 3.38349 10.8341C3.27994 11.4298 3.09697 12.4983 2.97684 13.2084L2.75846 14.4997L2.8356 14.6741C2.93109 14.89 3.16076 15.0264 3.37685 14.9957C3.45346 14.9848 4.38776 14.5142 5.49075 13.931C6.57788 13.3561 7.55372 12.8439 7.65926 12.7927L7.85117 12.6997L10.0005 13.8414C11.971 14.8881 12.1658 14.9833 12.3417 14.9854C12.5876 14.9884 12.7533 14.8764 12.8403 14.6486C12.903 14.4843 12.9008 14.4672 12.5326 12.3174C12.3286 11.1263 12.1428 10.0275 12.1197 9.87573L12.0776 9.59969L13.3419 8.36091C14.0373 7.67962 14.8192 6.91434 15.0796 6.66034C15.3399 6.40633 15.5774 6.15187 15.6073 6.09487C15.7391 5.84363 15.6312 5.4878 15.3843 5.35942C15.3084 5.31996 14.8938 5.24194 14.3375 5.16241C12.425 4.88902 10.4631 4.60128 10.4548 4.59303C10.4501 4.58831 10.0295 3.7386 9.52027 2.70481C9.011 1.67102 8.5221 0.679033 8.43383 0.500371C8.24208 0.112264 8.10705 0 7.83198 0C7.70747 0 7.61094 0.0272505 7.52102 0.087777Z" fill="white"/>
</svg>
