<svg width="15" height="12" viewBox="0 0 15 12" fill="none" xmlns="http://www.w3.org/2000/svg">
<path fill-rule="evenodd" clip-rule="evenodd" d="M13.5134 0.0342123C13.4235 0.0656809 12.5175 0.411116 11.154 0.933862C10.1986 1.30014 9.78985 1.45652 8.82588 1.82458C8.34464 2.00832 7.6837 2.26135 7.35714 2.38688C7.03058 2.51238 6.36965 2.76538 5.8884 2.9491C5.40716 3.13285 4.87279 3.33728 4.70091 3.40347C4.31301 3.55284 3.0982 4.0184 1.69762 4.55449C1.11144 4.77884 0.591128 4.97993 0.541378 5.0013C0.361004 5.0789 0.123662 5.2533 0.0614438 5.35396C-0.120899 5.64902 0.0995687 5.87467 0.763439 6.07236C0.918126 6.11842 1.17125 6.19667 1.32594 6.2462C2.47174 6.61329 3.76286 6.99976 3.80567 6.98848C3.83398 6.98101 5.34778 6.04201 7.16965 4.90187C11.6238 2.11439 11.5456 2.16242 11.6693 2.1392C11.7989 2.11489 11.904 2.16276 11.904 2.2461C11.904 2.28513 11.5961 2.58232 11.023 3.09657C10.5384 3.53134 9.13566 4.79134 7.9058 5.89652L5.66966 7.906L5.64862 8.13088C5.59062 8.7505 5.42769 11.2492 5.44419 11.2657C5.47719 11.2987 5.76972 11.213 5.8654 11.1424C5.9159 11.105 6.34009 10.7089 6.80805 10.262C7.27599 9.81515 7.67086 9.44515 7.68552 9.43984C7.70017 9.43449 8.36104 9.90558 9.1541 10.4867C9.94716 11.0678 10.697 11.6167 10.8203 11.7065C11.2688 12.0329 11.6837 12.0908 11.9305 11.8615C12.0589 11.7423 12.1781 11.4568 12.26 11.0722C12.4023 10.4049 12.7168 8.93343 12.8607 8.26203C12.938 7.9011 13.07 7.28235 13.154 6.88704C13.2379 6.49173 13.3714 5.86595 13.4504 5.49642C13.5295 5.1269 13.6632 4.50112 13.7474 4.10581C13.8316 3.7105 13.9651 3.08472 14.044 2.71519C14.4411 0.855832 14.44 0.861832 14.4265 0.652708C14.4067 0.346835 14.2642 0.110806 14.0504 0.0298062C13.9404 -0.0118498 13.6379 -0.00934986 13.5134 0.0342123Z" fill="white"/>
</svg>
