<svg width="257" height="30" viewBox="0 0 257 30" fill="none" xmlns="http://www.w3.org/2000/svg">
<g filter="url(#filter0_i_76_6246)">
<path d="M112.523 0.113181C111.712 0.164919 110.732 0.251774 110.345 0.306327L109.641 0.405513V4.88312V9.36073H114.936H120.23V4.88768V0.414628L119.677 0.326164C118.939 0.208078 115.359 -0.0208551 114.601 0.00152888C114.269 0.0113135 113.334 0.061577 112.523 0.113181Z" fill="#D02D42"/>
<path d="M109.641 25.1744V29.5951L109.943 29.6658C110.563 29.8113 113.383 30 114.936 30C116.489 30 119.309 29.8113 119.929 29.6658L120.23 29.5951V25.1744V20.7538H114.936H109.641V25.1744Z" fill="#D02D42"/>
<path fill-rule="evenodd" clip-rule="evenodd" d="M132.376 1.95524C132.218 4.66518 131.771 6.96055 131.003 8.99213C130.689 9.82382 130.63 9.89687 130.271 9.89687H129.881V12.3765V14.8562H131.221H132.562V13.4488V12.0415H135.846H139.129V13.4488V14.8562H140.47H141.81V12.3765V9.89687H141.274H140.738V5.13859V0.380315H136.602H132.467L132.376 1.95524ZM137.789 9.89687V6.2779V2.65893H136.449H135.108V3.1818C135.108 4.56345 134.27 8.11071 133.576 9.66231C133.479 9.88039 133.623 9.89687 135.63 9.89687H137.789Z" fill="#D02D42"/>
<path fill-rule="evenodd" clip-rule="evenodd" d="M146.775 0.2503C145.371 0.545313 143.95 1.62256 143.309 2.87848C142.746 3.98334 142.584 4.87119 142.643 6.5268C142.753 9.55629 143.913 11.3237 146.273 12.0566C147.027 12.2906 147.42 12.3291 148.552 12.2791C150.223 12.2054 151.171 11.874 152.101 11.0374C153.333 9.92958 153.94 8.30426 153.928 6.14386C153.912 3.33661 152.707 1.32768 150.543 0.50336C149.681 0.174837 147.752 0.0452246 146.775 0.2503ZM150.89 5.79778C150.791 4.20543 150.224 3.06573 149.289 2.57918C148.71 2.27773 147.559 2.33697 147.027 2.69565C146.024 3.37146 145.649 4.36681 145.646 6.361C145.643 7.62148 145.674 7.77964 146.077 8.5978C146.771 10.0079 147.929 10.4944 149.226 9.92073C150.406 9.39906 151.02 7.87762 150.89 5.79778Z" fill="#D02D42"/>
<path d="M159.235 0.259414C158.29 0.443848 157.045 1.12582 156.426 1.79708C155.291 3.02846 154.684 5.06675 154.875 7.00692C155.212 10.4199 157.253 12.3095 160.603 12.3095C161.868 12.3095 162.925 12.0977 163.972 11.6349L164.596 11.3587V9.95759C164.596 9.18702 164.557 8.55651 164.508 8.55651C164.46 8.55651 164.102 8.80207 163.713 9.10217C162.049 10.3854 160.384 10.4953 159.111 9.4059C158.227 8.64846 157.961 7.92507 157.961 6.26892C157.961 4.95791 157.991 4.79359 158.365 4.06242C158.951 2.91601 159.625 2.47717 160.897 2.41297C161.976 2.35855 162.475 2.53803 163.676 3.41301C164.018 3.66178 164.364 3.86525 164.447 3.86525C164.547 3.86525 164.596 3.40872 164.596 2.47436V1.08347L163.911 0.788857C162.511 0.186365 160.674 -0.0216593 159.235 0.259414Z" fill="#D02D42"/>
<path d="M165.535 1.51962V2.65893H167.277H169.019V7.42176V12.1846L170.46 12.1465L171.901 12.1085L171.936 7.38772L171.972 2.66697L173.679 2.62944L175.386 2.59191L175.425 1.48611L175.464 0.380315H170.499H165.535V1.51962Z" fill="#D02D42"/>
<path fill-rule="evenodd" clip-rule="evenodd" d="M176.391 6.15365C175.322 9.32749 174.428 11.9807 174.403 12.0499C174.377 12.1231 174.975 12.1755 175.838 12.1755H177.317L177.68 10.9657L178.043 9.75573L179.928 9.79286L181.812 9.82986L182.162 10.9692L182.513 12.1085L184.01 12.1464C184.832 12.1672 185.506 12.1522 185.506 12.1128C185.506 12.0735 184.624 9.41769 183.546 6.21088L181.587 0.380315L179.961 0.381789L178.335 0.383263L176.391 6.15365ZM181.083 7.51398C181.083 7.45675 180.84 6.63055 180.542 5.67809C180.245 4.72563 179.975 3.91954 179.942 3.88656L179.939 3.88341L179.936 3.87993C179.927 3.87042 179.919 3.86234 179.911 3.86152C179.863 3.85696 179.794 4.07919 179.338 5.54407L179.338 5.54452L179.28 5.73036C179.018 6.57184 178.804 7.34094 178.804 7.43932C178.804 7.57456 179.083 7.61826 179.943 7.61826C180.57 7.61826 181.083 7.57135 181.083 7.51398Z" fill="#D02D42"/>
<path fill-rule="evenodd" clip-rule="evenodd" d="M186.846 6.28474V12.2066L189.963 12.1455C192.739 12.0909 193.159 12.053 193.816 11.7975C195.248 11.2406 196.049 10.2645 196.188 8.90796C196.335 7.47645 195.691 6.36207 194.451 5.89938L193.762 5.64244L194.192 5.42034C195.278 4.85873 195.753 3.05675 195.133 1.85471C194.882 1.36816 194.666 1.17381 194.017 0.849441L193.213 0.447333L190.03 0.405111L186.846 0.362756V6.28474ZM192.348 4.18466C192.559 3.62935 192.496 3.32911 192.084 2.91668C191.725 2.55746 191.613 2.52489 190.744 2.52489H189.795V3.80199V5.07908L190.7 4.99276C191.717 4.89572 192.16 4.67831 192.348 4.18466ZM193.146 8.421C193.146 7.98592 193.061 7.78085 192.754 7.4739C192.376 7.09539 192.319 7.08212 191.079 7.08212H189.795V8.57635V10.0704L190.944 9.98212C192.677 9.84889 193.146 9.51635 193.146 8.421Z" fill="#D02D42"/>
<path d="M199.442 0.949968C199.432 2.38094 199.177 6.44571 199.045 7.27178C198.791 8.86198 198.314 9.49477 197.368 9.49477H196.765V10.8351V12.1755H197.811C199.953 12.1755 201.003 11.1246 201.634 8.35063C201.88 7.26923 202.126 4.87562 202.126 3.56367L202.126 2.65893H203.668H205.209V7.42176V12.1846L206.65 12.1465L208.091 12.1085L208.126 6.24439L208.161 0.380315H203.803H199.446L199.442 0.949968Z" fill="#D02D42"/>
<path fill-rule="evenodd" clip-rule="evenodd" d="M212.735 0.591019C211.924 0.809096 211.454 1.10692 210.869 1.77416C210.31 2.41002 210.123 3.06506 210.199 4.11871C210.294 5.44634 210.819 6.29345 212.042 7.09472L212.369 7.30824L210.665 9.67558C209.729 10.9776 208.962 12.0728 208.962 12.1093C208.962 12.1456 209.734 12.1755 210.678 12.1755H212.394L213.901 9.96389L215.408 7.7523H215.938H216.468V9.96389V12.1755H217.943H219.417V6.2779V0.380315L216.435 0.389161C214.284 0.395461 213.252 0.451756 212.735 0.591019ZM216.468 5.74176V4.13332V2.52489L215.429 2.53334C214.858 2.53803 214.263 2.59338 214.108 2.65625C213.586 2.86695 213.251 3.44746 213.251 4.1411C213.251 5.28389 214.004 5.74176 215.884 5.74176H216.468Z" fill="#D02D42"/>
<path d="M221.428 6.2779V12.1755H225.382H229.336V11.0362V9.89687H226.856H224.376V8.42569V6.95438L226.688 6.91779L229.001 6.88106L229.039 5.77527L229.078 4.66947H226.727H224.376V3.6642V2.65893H226.856H229.336V1.51962V0.380315H225.382H221.428V6.2779Z" fill="#D02D42"/>
<path d="M231.48 6.2779V12.1755H232.886H234.291L234.326 8.34688L234.362 4.51828L235.379 6.90599L236.396 9.29371L237.405 9.33258L238.413 9.37132L239.471 6.91993L240.528 4.46841L240.563 8.32195L240.599 12.1755H242.071H243.543V6.2779V0.380315H241.82H240.098L238.843 3.19507C238.153 4.74319 237.551 6.00983 237.505 6.00983C237.459 6.00983 236.858 4.74319 236.168 3.19507L234.914 0.380315H233.197H231.48V6.2779Z" fill="#D02D42"/>
<path d="M132.964 17.5913C132.032 17.8011 131.436 18.0665 130.73 18.5856C128.035 20.5683 127.865 26.0067 130.426 28.3091C131.939 29.6696 134.626 30.0398 137.005 29.2158C137.073 29.1924 137.137 29.1703 137.198 29.1495C137.747 28.961 138.029 28.864 138.174 28.6663C138.328 28.4568 138.327 28.1341 138.326 27.4696C138.325 27.4002 138.325 27.327 138.325 27.2498C138.325 26.4783 138.29 25.8472 138.247 25.8472C138.204 25.8472 137.915 26.0552 137.605 26.3095C135.48 28.051 133.154 27.7778 132.058 25.6582C131.747 25.0577 131.704 24.8152 131.699 23.6356C131.695 22.516 131.745 22.1849 132.001 21.625C132.6 20.3167 133.52 19.6796 134.801 19.6845C135.707 19.6879 136.457 19.9897 137.479 20.7612C137.865 21.052 138.212 21.2899 138.252 21.2899C138.292 21.2899 138.325 20.6329 138.325 19.8297V18.3697L137.487 18.0351C136.611 17.6849 135.081 17.395 134.211 17.4142C133.931 17.4203 133.369 17.5001 132.964 17.5913Z" fill="#D02D42"/>
<path fill-rule="evenodd" clip-rule="evenodd" d="M139.934 23.5809V29.4908L143.117 29.4433C146.295 29.3959 146.302 29.3952 147.14 29.0099C148.684 28.2998 149.41 27.0535 149.286 25.3266C149.181 23.8693 148.622 23.0378 147.371 22.4788C146.81 22.2285 146.394 22.1706 144.792 22.1203L142.882 22.0604V21.0077V19.9551L145.664 19.9187L148.445 19.8826L148.484 18.7768L148.523 17.671H144.228H139.934V23.5809ZM146.233 25.6485C146.233 24.9336 145.846 24.4628 145.142 24.3221C144.913 24.2763 144.311 24.2387 143.804 24.2387H142.882V25.799V27.3594L143.997 27.2898C145.169 27.2167 145.86 26.9648 146.095 26.5247C146.171 26.3829 146.233 25.9886 146.233 25.6485Z" fill="#D02D42"/>
<path fill-rule="evenodd" clip-rule="evenodd" d="M154.678 17.5501C153.757 17.7298 152.484 18.415 151.929 19.0296C149.994 21.1716 149.859 25.3405 151.646 27.7656C152.071 28.3422 153.084 29.0357 153.963 29.3523C155.066 29.7496 157.108 29.7479 158.217 29.349C160.014 28.7025 161.164 27.3305 161.588 25.3286C162.242 22.2447 161.141 19.1825 158.984 18.0818C157.822 17.4889 156.087 17.2748 154.678 17.5501ZM158.699 23.5655C158.699 21.7146 158.204 20.5161 157.208 19.9567C156.609 19.6196 155.597 19.598 154.966 19.9088C154.43 20.1726 153.927 20.891 153.663 21.7674C153.41 22.6099 153.418 24.5451 153.678 25.4227C154.305 27.5347 156.565 28.1512 157.875 26.5675C158.45 25.8722 158.699 24.9653 158.699 23.5655Z" fill="#D02D42"/>
<path fill-rule="evenodd" clip-rule="evenodd" d="M163.39 23.5576V29.4661H164.864H166.339V27.5375V25.6087L167.785 25.5593C169.095 25.5143 169.315 25.4685 170.125 25.0696C171.183 24.5485 171.84 23.8389 172.149 22.8824C172.408 22.0813 172.437 20.8049 172.213 20.0577C171.971 19.2492 171.148 18.4076 170.255 18.0531C169.554 17.7752 169.226 17.7448 166.439 17.6991L163.39 17.649V23.5576ZM168.895 22.822C169.648 22.1007 169.504 20.6092 168.638 20.1615C168.417 20.047 167.809 19.9137 167.287 19.8653L166.339 19.7771V21.6057V23.4345L166.908 23.4313C167.805 23.4263 168.481 23.2188 168.895 22.822Z" fill="#D02D42"/>
<path d="M173.979 23.5685V29.4661H175.453H176.928V26.8524V24.2387H178.938H180.949V26.8524V29.4661H182.423H183.897V23.5685V17.671H182.423H180.949V19.8155V21.9601H178.938H176.928V19.8155V17.671H175.453H173.979V23.5685Z" fill="#D02D42"/>
<path fill-rule="evenodd" clip-rule="evenodd" d="M185.64 23.5811V29.4912L188.756 29.4374C192.291 29.3766 192.918 29.2372 193.884 28.2995C194.999 27.217 195.287 25.3912 194.574 23.9331C193.911 22.5788 192.731 22.1022 190.03 22.097L188.589 22.0942V19.8826V17.671H187.114H185.64V23.5811ZM191.94 25.7564C191.94 25.1171 191.643 24.6714 191.055 24.4256C190.806 24.3217 190.158 24.2387 189.594 24.2387H188.58L188.618 25.7466L188.62 25.8217L188.623 25.9465C188.64 26.7039 188.649 27.0719 188.836 27.2309C189.012 27.3812 189.348 27.3447 190.001 27.2735C190.059 27.2671 190.12 27.2605 190.183 27.2537C190.927 27.1741 191.12 27.0954 191.497 26.7183C191.846 26.37 191.94 26.1656 191.94 25.7564Z" fill="#D02D42"/>
<path d="M195.827 23.5685V29.4661H197.301H198.775V23.5685V17.671H197.301H195.827V23.5685Z" fill="#D02D42"/>
<path d="M200.786 23.5732V29.4755L202.157 29.4373L203.528 29.3991L205.742 25.6031L207.957 21.8072L207.992 25.6366L208.028 29.4661H209.5H210.973V23.5643V17.6625L209.405 17.7002L207.836 17.738L205.786 21.1559L203.735 24.5738L203.735 21.1224L203.735 17.671H202.26H200.786V23.5732Z" fill="#D02D42"/>
<path d="M201.724 14.1437C201.724 14.3416 201.85 14.7639 202.004 15.0821C202.64 16.396 203.989 16.9464 206.308 16.8379C207.368 16.7883 207.836 16.7031 208.324 16.4709C209.095 16.1037 209.703 15.4399 209.892 14.7593L209.901 14.7271C210.02 14.3006 210.085 14.067 209.996 13.939C209.889 13.7838 209.557 13.7839 208.823 13.7839L208.777 13.7839H207.52L207.37 14.3794C207.173 15.1614 206.825 15.3924 205.843 15.3924C204.924 15.3924 204.481 15.0632 204.332 14.2681L204.241 13.7839H202.983H201.724V14.1437Z" fill="#D02D42"/>
<path d="M217.004 23.5685V29.4661H218.479H219.953V24.7079V19.9496H222.433H224.912V18.8103V17.671H220.958H217.004V23.5685Z" fill="#D02D42"/>
<path fill-rule="evenodd" clip-rule="evenodd" d="M226.521 23.5576V29.4661H227.995H229.47V27.5375V25.6087L230.916 25.5593C232.227 25.5143 232.445 25.4686 233.257 25.0692C234.832 24.2937 235.575 22.9804 235.47 21.1559C235.401 19.9671 235.071 19.229 234.34 18.626C233.403 17.8535 232.93 17.762 229.57 17.7027L226.521 17.649V23.5576ZM232.427 21.9885C232.596 21.2369 232.344 20.5062 231.809 20.1945C231.584 20.0635 230.966 19.9161 230.435 19.8667L229.47 19.7771V21.6057V23.4345L230.039 23.4313C231.454 23.4234 232.207 22.9687 232.427 21.9885Z" fill="#D02D42"/>
<path fill-rule="evenodd" clip-rule="evenodd" d="M36.181 0.618899C36.2964 0.565687 37.9288 0.469851 39.8087 0.405648C47.1965 0.15366 63.1526 0.268931 64.5664 0.584586C64.8012 0.637128 64.9304 0.865659 65.19 1.68837C66.6643 6.35913 67.3142 10.4799 67.3197 15.1913C67.3251 19.873 66.7377 23.621 65.3308 27.8805L64.8584 29.3107L63.8942 29.3921C58.4939 29.8484 40.9759 29.8251 36.7854 29.356L35.9735 29.2651L36.6158 25.6592C36.969 23.676 37.2825 22.029 37.3124 21.999C37.3423 21.9691 38.6551 22.0084 40.2297 22.0861C45.3278 22.3378 56.8987 22.2054 57.2123 21.8918C57.3202 21.7839 57.7612 18.8383 57.6874 18.7189C57.6501 18.6585 54.6678 18.6092 51.0598 18.6092H44.5V14.8562V11.1032H51.1347C54.7839 11.1032 57.7686 11.0882 57.7674 11.0697C57.7524 10.8418 57.2516 8.26217 57.2156 8.22665C57.1885 8.20011 56.3219 8.09757 55.2899 7.99892C52.828 7.76329 43.8611 7.76396 40.167 8C38.6316 8.09811 37.3485 8.15146 37.3156 8.11862C37.2828 8.08578 36.9669 6.40671 36.6137 4.38719C36.047 1.14794 35.996 0.704012 36.181 0.618899ZM0 29.3321V14.9902V0.648387H16.2184H32.4367V14.9902V29.3321H27.2093H21.9819V18.9428V8.5537L16.1178 8.58855L10.2538 8.62353L10.2194 18.9778L10.1851 29.3321H5.09257H0ZM71.5752 29.3321V15.0573V0.782423H76.6016H81.6279V6.00983V11.2372H83.5516H85.4754L89.6066 6.00983L93.7376 0.782423H99.6998C105.365 0.782423 105.652 0.794084 105.463 1.01699C105.353 1.14606 102.72 4.13037 99.6112 7.64895C96.5026 11.1674 93.9593 14.1094 93.9593 14.1864C93.9593 14.2635 96.7037 17.6728 100.058 21.7627C103.412 25.8525 106.157 29.2288 106.157 29.2655C106.157 29.3021 103.363 29.3321 99.9487 29.3321H93.7408L89.5875 23.8701L85.4344 18.4082H83.5648H81.695L81.66 23.8701L81.625 29.3321H76.6001H71.5752Z" fill="#242265"/>
<path d="M250.714 17.4838C250.174 17.5621 249.258 17.7726 248.402 18.0152L247.699 18.2146V19.4329C247.699 19.5029 247.698 19.5693 247.698 19.6322V19.6324C247.697 20.1722 247.696 20.4566 247.829 20.5492C247.976 20.6522 248.29 20.5172 248.953 20.2319L249.032 20.1978C249.078 20.1783 249.125 20.1582 249.173 20.1375C250.079 19.75 251.442 19.5744 252.298 19.7351C252.909 19.8497 253.328 20.2699 253.328 20.7679C253.328 21.7658 252.715 22.0942 250.853 22.0942H249.575V23.1664V24.2387L250.949 24.2462C252.696 24.2559 253.184 24.4151 253.509 25.0822C254.566 27.2439 251.167 28.2546 248.27 26.6403C247.884 26.4253 247.507 26.2493 247.433 26.2493C247.35 26.2493 247.296 26.7687 247.296 27.5792V28.9092L247.732 29.0461C250.023 29.7658 252.341 29.8437 254.188 29.2629C255.098 28.9766 256.081 28.1561 256.427 27.3938C256.704 26.7835 256.763 25.416 256.537 24.8171C256.314 24.2261 255.627 23.6026 254.916 23.3471C254.559 23.2186 254.266 23.0772 254.266 23.0328C254.266 22.9884 254.464 22.8805 254.707 22.793C255.268 22.5901 256.063 21.7587 256.259 21.1694C256.775 19.622 255.958 18.2606 254.196 17.7303C253.54 17.5328 251.416 17.3824 250.714 17.4838Z" fill="#D02D42"/>
<path d="M235.933 17.7715C235.958 17.8267 236.94 19.8169 238.115 22.1939C238.273 22.5128 238.42 22.8107 238.559 23.0888C239.785 25.5605 240.238 26.4726 239.97 26.805C239.814 26.9993 239.411 26.9953 238.772 26.989C238.65 26.9878 238.518 26.9865 238.378 26.9865H236.976L236.976 28.2392V29.4919L238.83 29.4455C240.621 29.4007 240.705 29.3856 241.339 28.9935C241.729 28.7525 242.149 28.339 242.374 27.9754C242.664 27.5065 246.76 17.9243 246.76 17.7151C246.76 17.6908 246.078 17.671 245.244 17.671H243.728L242.731 20.2595C242.183 21.6832 241.674 22.8659 241.601 22.8879C241.529 22.9098 240.929 21.7449 240.269 20.2993L239.07 17.671H237.479C236.604 17.671 235.908 17.7163 235.933 17.7715Z" fill="#D02D42"/>
</g>
<defs>
<filter id="filter0_i_76_6246" x="0" y="0" width="256.676" height="30" filterUnits="userSpaceOnUse" color-interpolation-filters="sRGB">
<feFlood flood-opacity="0" result="BackgroundImageFix"/>
<feBlend mode="normal" in="SourceGraphic" in2="BackgroundImageFix" result="shape"/>
<feColorMatrix in="SourceAlpha" type="matrix" values="0 0 0 0 0 0 0 0 0 0 0 0 0 0 0 0 0 0 127 0" result="hardAlpha"/>
<feOffset/>
<feGaussianBlur stdDeviation="15"/>
<feComposite in2="hardAlpha" operator="arithmetic" k2="-1" k3="1"/>
<feColorMatrix type="matrix" values="0 0 0 0 1 0 0 0 0 1 0 0 0 0 1 0 0 0 0.3 0"/>
<feBlend mode="normal" in2="shape" result="effect1_innerShadow_76_6246"/>
</filter>
</defs>
</svg>
