<svg width="244" height="55" viewBox="0 0 244 55" fill="none" xmlns="http://www.w3.org/2000/svg">
<g filter="url(#filter0_i_76_6245)">
<path d="M28.9751 4.37295C27.8018 6.47279 26.5518 8.644 26.1978 9.19818L25.554 10.206L27.6569 12.6688C28.8133 14.0234 30.4775 15.9439 31.3549 16.9365C33.8531 19.7627 37.5245 23.9843 40.7116 27.6953C42.3178 29.5661 43.6677 31.0965 43.711 31.0965C43.9067 31.0965 46.3411 26.7005 46.3411 26.3471C46.3411 26.1288 46.0288 25.4905 45.647 24.9286C45.2653 24.3669 44.9529 23.8321 44.9529 23.7402C44.9529 23.6483 44.5156 22.8898 43.9811 22.0544C43.4467 21.2186 43.0094 20.4726 43.0094 20.3963C43.0094 20.3196 42.6745 19.7288 42.265 19.0827C41.6214 18.0671 36.6612 9.47083 32.8161 2.70706C32.1434 1.52373 31.484 0.555295 31.351 0.555295C31.2177 0.555295 30.1488 2.27338 28.9751 4.37295Z" fill="#F9B22D"/>
<path d="M23.8292 13.2527C23.6127 13.6697 22.5293 15.5721 21.4223 17.4798C20.3153 19.3878 19.4094 21.0323 19.4094 21.1348C19.4094 21.2372 20.4003 22.0524 21.6114 22.9464C25.7458 25.9981 34.8141 32.7124 37.4564 34.6782C38.9071 35.7574 40.219 36.64 40.3717 36.6395C40.6838 36.6383 42.4541 33.7325 42.4541 33.2213C42.4541 33.04 40.8146 31.0196 38.8105 28.7318C34.3826 23.6764 27.452 15.6682 25.9341 13.8535C25.3232 13.1233 24.6885 12.5188 24.5233 12.51C24.3581 12.5014 24.0458 12.8354 23.8292 13.2527Z" fill="#F9B22D"/>
<path d="M17.6671 23.8083C17.1149 24.8766 13.862 30.5498 13.3727 31.2975C12.9813 31.8961 13.0235 31.9403 14.7315 32.7246C17.9242 34.1906 19.1228 34.7059 19.3391 34.7059C19.4566 34.7059 20.1362 35.0166 20.8495 35.3964C21.5628 35.776 22.8011 36.3449 23.6015 36.6603C24.4017 36.9757 25.6287 37.4913 26.328 37.8061C27.0277 38.121 28.1241 38.6144 28.7647 38.9023C29.4052 39.1902 29.9958 39.4259 30.0766 39.4259C30.1574 39.4259 31.0419 39.8008 32.0423 40.2589C33.0427 40.717 33.9209 41.0918 33.9942 41.0918C34.0675 41.0918 34.7749 41.4042 35.5662 41.7859C36.3575 42.1677 37.0402 42.48 37.0833 42.48C37.3229 42.48 39.1207 39.3382 39.1118 38.9348C39.1057 38.648 37.7979 37.5021 35.8697 36.0942C31.9224 33.2119 27.1832 29.6994 22.12 25.9039C20.0224 24.3314 18.2513 23.0447 18.1841 23.0447C18.1169 23.0447 17.8842 23.3885 17.6671 23.8083Z" fill="#F9B22D"/>
<path d="M11.7252 34.2156C11.6011 34.4088 11.3595 34.817 11.1888 35.1224C11.018 35.4278 9.97933 37.2259 8.88013 39.1177C7.7812 41.0099 6.98324 42.655 7.10679 42.7738C7.23063 42.8926 9.08087 43.3183 11.2188 43.72C13.3566 44.1218 15.6056 44.5616 16.2164 44.6973C16.8272 44.8331 21.0566 45.6633 25.6153 46.5423C32.644 47.8975 33.9409 48.0794 34.1474 47.7395C34.2815 47.5191 34.7766 46.687 35.2475 45.8904L36.1035 44.4419L34.6455 43.7386C33.8437 43.3519 33.0949 43.0353 32.9816 43.0353C32.868 43.0353 31.9543 42.6605 30.9512 42.2024L30.0544 41.7929L29.127 41.3695C28.4658 41.0675 27.8046 40.7656 27.3029 40.5365C26.2997 40.0784 25.3838 39.7036 25.2677 39.7036C25.1514 39.7036 24.4417 39.3918 23.6904 39.0106C22.9394 38.6294 22.2347 38.317 22.1247 38.3164C22.0145 38.3159 21.2024 37.9916 20.32 37.5962C19.4374 37.2006 17.8406 36.4984 16.7717 36.0356C15.1866 35.3495 13.3253 34.5127 12.1403 33.9532C12.0364 33.9041 11.8496 34.0221 11.7252 34.2156Z" fill="#F9B22D"/>
<path d="M5.14188 45.6036C4.9231 45.9473 3.78197 47.915 2.60641 49.9765C1.43057 52.0381 0.339418 53.8839 0.181715 54.0785C0.0240109 54.2731 -0.0442905 54.493 0.030119 54.5674C0.200317 54.7376 29.9888 54.7601 30.1587 54.5902C30.5394 54.2095 32.6604 50.365 32.5715 50.217C32.5132 50.1201 31.6208 49.8927 30.588 49.7119C29.5554 49.5312 27.5861 49.1486 26.2117 48.8615C24.8374 48.5744 22.5884 48.1402 21.2141 47.8967C19.8397 47.6529 18.2779 47.3414 17.7435 47.2045C17.209 47.0676 16.0221 46.8227 15.1058 46.66C14.1896 46.4973 11.8249 46.0525 9.85078 45.6716L9.49987 45.6038C6.5091 45.0261 5.8213 44.8932 5.46465 45.1768C5.35814 45.2615 5.28116 45.3833 5.18119 45.5415L5.16481 45.5675L5.14188 45.6036Z" fill="#F9B22D"/>
<path fill-rule="evenodd" clip-rule="evenodd" d="M75.4701 6.43928L75.462 6.45359L75.4535 6.46838L75.4391 6.49353C71.6676 13.0821 71.1971 13.9041 70.7313 14.7287C70.6659 14.8445 70.6006 14.9603 70.5263 15.0922L70.5231 15.0977L70.4648 15.2012C70.3615 15.3844 70.2632 15.5592 70.1693 15.7258C68.8151 18.1319 68.4108 18.8501 67.8231 19.0637C67.5731 19.1546 67.2898 19.1541 66.8859 19.1535C66.8202 19.1533 66.7513 19.1532 66.6788 19.1535L65.4988 19.1577V24.0165V28.8753H67.5812H69.6635V26.0958V23.3163L80.9777 23.3887L92.2918 23.4612L92.3712 26.1683L92.4506 28.8753H94.5296H96.6084L96.5326 24.0859L96.4565 19.2965L95.1085 19.1577C93.8511 19.0283 93.7136 18.935 93.0623 17.7694C92.6783 17.0823 91.634 15.2539 90.7417 13.7063C89.8493 12.1587 88.771 10.276 88.3453 9.52275C87.92 8.76949 86.5217 6.31842 85.2382 4.07642L82.9048 0H81.0304H79.1563L75.6199 6.17765L75.4701 6.43928ZM148.482 4.52788C144.229 5.97747 142.13 9.03715 142.13 13.7835C142.13 18.3111 144.571 21.5721 148.955 22.9023C150.945 23.5059 155.27 23.4515 157.375 22.7962C160.572 21.8012 162.678 19.9734 163.805 17.2141C164.06 16.5914 164.201 15.2456 164.198 13.4659C164.194 10.9771 164.113 10.5312 163.414 9.16236C161.498 5.40579 158.528 3.88984 153.097 3.89761C150.95 3.90039 149.903 4.04366 148.482 4.52788ZM100.042 4.54287C99.9624 4.75082 99.9352 5.65679 99.9815 6.55581L100.066 8.1906H109.475H118.884L119.956 6.42754C120.546 5.45771 121.028 4.55175 121.028 4.41459C121.028 4.27105 116.594 4.16471 110.608 4.16471C102.071 4.16471 100.161 4.23301 100.042 4.54287ZM126.924 4.51177C126.685 4.80774 120.439 15.6252 118.307 19.4353C117.923 20.1225 117.316 21.1509 116.958 21.7204C116.601 22.2901 116.308 22.8881 116.308 23.0497C116.308 23.2405 117.199 23.3152 118.852 23.2635L121.396 23.1836L121.976 22.1765C122.295 21.6226 123.867 18.8464 125.471 16.0072C127.074 13.168 128.546 10.8413 128.742 10.8366C128.937 10.8321 129.179 11.047 129.277 11.3141C129.613 12.2195 135.82 22.9045 136.13 23.11C136.299 23.2221 137.531 23.3157 138.867 23.3182C141.457 23.3227 141.689 23.1738 140.885 22.0255C140.659 21.7026 139.703 20.0817 138.761 18.4238C137.818 16.766 136.834 15.0346 136.572 14.5765C136.311 14.1184 134.996 11.807 133.651 9.44001C132.306 7.07307 131.021 4.91769 130.794 4.65059C130.294 4.06087 127.373 3.9562 126.924 4.51177ZM168.849 13.6505L168.922 23.1836H176.141C182.47 23.1836 183.522 23.1208 184.676 22.6757C187.314 21.6579 188.552 19.2093 188.067 15.9708C187.87 14.6603 186.679 13.0869 185.309 12.3284C184.782 12.0363 184.796 11.9874 185.656 11.127C186.477 10.3065 186.553 10.0817 186.553 8.48435C186.553 6.52583 186.058 5.62652 184.516 4.78553C183.76 4.37378 182.599 4.29354 176.207 4.21219L168.776 4.11751L168.849 13.6505ZM193.005 13.6625L193.078 23.1836L198.631 23.2702C206.349 23.3904 208.082 22.9467 209.712 20.4323C210.344 19.4578 210.43 19.0377 210.426 16.9504C210.42 13.9851 209.812 12.7179 207.932 11.7589C206.779 11.1706 206.325 11.1209 202.041 11.1137L197.399 11.1059L197.321 7.70471L197.242 4.30353L195.087 4.22246L192.932 4.14111L193.005 13.6625ZM213.161 4.44097C213.11 4.59312 213.103 8.90359 213.145 14.0198L213.222 23.3224H215.297H217.372V13.7435V4.16471H215.313C214.18 4.16471 213.212 4.2891 213.161 4.44097ZM222.925 6.24707V8.32942H232.183C232.99 8.32942 233.728 8.33069 234.405 8.33185C239.842 8.34116 241.279 8.34362 242.029 7.62726C242.298 7.37002 242.479 7.02009 242.725 6.54451L242.725 6.54379L242.726 6.54181L242.727 6.54048C242.811 6.37688 242.903 6.19845 243.01 6.00384C243.416 5.25919 243.748 4.54092 243.748 4.40737C243.748 4.27327 239.093 4.16471 233.337 4.16471H222.925V6.24707ZM84.5177 12.5177C86.3501 15.7276 87.8897 18.5346 87.9391 18.7556C88.0157 19.0985 86.9823 19.1577 80.9285 19.1577C75.9922 19.1577 73.8282 19.0655 73.8282 18.8553C73.8282 18.689 74.8478 16.7835 76.0938 14.6212C79.6905 8.37996 80.0922 7.66418 80.2888 7.14942C80.391 6.88232 80.6345 6.6677 80.8302 6.6727C81.0257 6.67742 82.6852 9.30785 84.5177 12.5177ZM155.992 8.23641C158.521 9.05325 159.844 11.3319 159.536 14.3394C159.242 17.2136 157.14 19.1102 153.969 19.3617C149.661 19.7038 146.85 17.4246 146.85 13.5895C146.85 11.8183 147.664 9.96393 148.82 9.10045C150.595 7.77496 153.484 7.42679 155.992 8.23641ZM181.813 8.78338C182.129 9.18569 182.388 9.66851 182.388 9.85648C182.388 10.0444 182.129 10.5273 181.813 10.9296C181.239 11.6592 181.226 11.6612 177.259 11.6612H173.28L173.166 10.2035C173.104 9.40197 173.106 8.58985 173.169 8.39883C173.255 8.14284 174.328 8.05177 177.261 8.05177C181.226 8.05177 181.239 8.054 181.813 8.78338ZM100.186 11.7306C100.176 11.7686 100.141 12.6454 100.108 13.6786L100.047 15.5571L107.391 15.4833L114.735 15.4094L115.78 13.7435C116.354 12.8273 116.833 11.9841 116.844 11.8694C116.861 11.6878 100.234 11.5493 100.186 11.7306ZM222.925 15.5483H230.147H237.369L238.347 14.0204C238.884 13.1802 239.396 12.3056 239.483 12.0768C239.623 11.7134 238.594 11.6612 231.284 11.6612H222.925V13.6047V15.5483ZM204.625 14.9955C206.209 15.4353 206.76 17.2486 205.721 18.6024C205.198 19.2834 205.117 19.2965 201.354 19.2965H197.52L197.438 17.2386C197.379 15.7798 197.46 15.1143 197.715 14.9521C198.223 14.6301 203.427 14.6623 204.625 14.9955ZM183.095 15.6746C184.218 16.7977 183.805 18.6224 182.309 19.1438C181.111 19.5614 173.594 19.5286 173.332 19.1049C173.167 18.8375 173.089 16.5464 173.202 15.2706C173.217 15.0976 174.959 14.993 177.82 14.993C182.327 14.993 182.426 15.0057 183.095 15.6746ZM100.122 19.3659C100.058 19.4806 100.021 20.3863 100.041 21.3788L100.076 23.1836L105.099 23.2591C108.906 23.3163 110.19 23.2491 110.402 22.9814C110.764 22.5247 112.421 19.5128 112.421 19.3115C112.421 19.0752 100.254 19.1291 100.122 19.3659ZM222.925 21.24V23.3224H227.904H232.882L233.407 22.5588C233.695 22.139 234.271 21.202 234.687 20.4765L235.442 19.1577H229.184H222.925V21.24ZM104.944 36.6228C104.628 37.0665 104.369 37.4935 104.369 37.5718C104.369 37.6501 103.828 38.6302 103.167 39.7499C102.505 40.8697 101.646 42.3482 101.258 43.0353C100.869 43.7225 100.118 45.0344 99.5889 45.9506C95.5853 52.8838 94.6518 54.5466 94.6518 54.7465C94.6518 54.8717 95.771 54.9742 97.139 54.9742H99.6261L100.401 53.6554C100.828 52.9301 101.426 51.887 101.732 51.3376C104.998 45.4603 106.777 42.5078 107.007 42.5789C107.16 42.6261 108.858 45.4031 110.78 48.7502L114.275 54.8354L116.957 54.9148C118.706 54.9667 119.64 54.8923 119.64 54.701C119.64 54.5397 119.346 53.9419 118.987 53.3722C118.627 52.8027 117.272 50.4624 115.974 48.1718C115.318 47.0131 114.723 45.9622 114.185 45.0091C109.773 37.206 109.067 35.9567 108.174 35.8044C108.004 35.7754 107.827 35.7862 107.616 35.7991C107.481 35.8074 107.331 35.8165 107.161 35.8165C105.664 35.8165 105.467 35.8884 104.944 36.6228ZM121.988 36.1658C121.914 36.3576 121.886 40.637 121.927 45.6752L122 54.8354L123.723 54.9178L125.447 55L127.082 53.2519C128.657 51.5683 130.893 49.0631 134.561 44.8748C135.513 43.7867 136.426 42.8965 136.589 42.8965C136.789 42.8965 136.904 44.8481 136.94 48.8659L136.993 54.8354H139.075H141.158V45.3953V35.9553L139.561 35.872C138.683 35.8262 137.793 35.8887 137.583 36.0109C137.258 36.1997 131.939 42.0383 128.073 46.4485C127.443 47.1673 126.787 47.7553 126.616 47.7553C126.394 47.7553 126.304 46.0192 126.304 41.7859V35.8165H124.213C122.789 35.8165 122.079 35.9281 121.988 36.1658ZM146.698 36.1658C146.624 36.3576 146.597 40.637 146.637 45.6752L146.711 54.8354L148.862 54.9164C150.472 54.9772 151.018 54.9073 151.029 54.6388C151.037 54.4414 151.031 52.7536 151.015 50.8878C150.987 47.5677 151 47.4919 151.625 47.3378C151.976 47.2511 154.263 47.2159 156.706 47.2595L161.148 47.3389L161.287 51.0871L161.426 54.8354H163.508H165.591L165.664 45.3259L165.737 35.8165H163.52H161.303L161.226 39.4953L161.148 43.1742H156.151H151.153L151.076 39.4953L150.998 35.8165H148.915C147.498 35.8165 146.789 35.9281 146.698 36.1658ZM171.131 36.1658C171.057 36.3576 171.03 40.637 171.07 45.6752L171.144 54.8354L172.514 54.922C173.267 54.9697 174.142 54.9439 174.457 54.8648C174.773 54.7854 176.505 53.039 178.306 50.9836C184.094 44.3778 185.459 42.8965 185.757 42.8965C185.952 42.8965 186.064 44.8975 186.093 48.8659L186.137 54.8354H188.219H190.301L190.374 45.3137L190.447 35.7921L188.439 35.8737L186.43 35.9553L183.275 39.5648C179.949 43.3707 179.79 43.5537 177.418 46.298C176.594 47.2523 175.809 48.033 175.673 48.033C175.538 48.033 175.436 45.4467 175.447 42.2718C175.459 39.103 175.463 36.3546 175.457 36.1636C175.443 35.6746 171.319 35.6766 171.131 36.1658ZM195.993 45.3953V54.9742H197.751H199.508L201.985 52.1575C203.347 50.6085 204.974 48.7654 205.601 48.0622C206.229 47.3589 207.514 45.909 208.457 44.84C209.4 43.7711 210.3 42.8965 210.456 42.8965C210.64 42.8965 210.759 45.0158 210.794 48.8659L210.847 54.8354H212.93H215.012L215.085 45.3259L215.158 35.8165H213.228H211.298L205.965 41.9159C203.031 45.2707 200.525 47.9494 200.395 47.8689C200.264 47.7884 200.158 45.0438 200.158 41.7696V35.8165H198.075H195.993V45.3953Z" fill="#324254"/>
<path d="M44.3593 34.3347C42.6243 37.3375 40.9517 40.2425 40.6424 40.79C40.3331 41.3378 39.7526 42.3482 39.3525 43.0353C34.643 51.1229 32.7389 54.5141 32.8469 54.6221C32.9474 54.7226 38.7891 54.7923 40.4131 54.7124C40.688 54.6988 43.6038 49.9432 46.5938 44.6318C47.088 43.7536 47.5939 43.0353 47.7177 43.0353C47.9026 43.0353 52.0421 49.9935 52.4233 50.9447C52.7331 51.7185 54.7533 54.6976 54.9732 54.7054C56.829 54.7712 62.5308 54.7029 62.6199 54.6141C62.6849 54.5488 61.0717 51.636 59.0349 48.1407C56.9981 44.6457 55.0182 41.2237 54.6348 40.5365C54.2513 39.8493 53.2104 38.0377 52.3214 36.5106C50.6508 33.6403 50.3759 33.1614 48.8561 30.4718C48.3599 29.5936 47.8549 28.8753 47.7338 28.8753C47.6128 28.8753 46.0943 31.3322 44.3593 34.3347Z" fill="#F9B22D"/>
</g>
<defs>
<filter id="filter0_i_76_6245" x="0" y="0" width="243.748" height="55" filterUnits="userSpaceOnUse" color-interpolation-filters="sRGB">
<feFlood flood-opacity="0" result="BackgroundImageFix"/>
<feBlend mode="normal" in="SourceGraphic" in2="BackgroundImageFix" result="shape"/>
<feColorMatrix in="SourceAlpha" type="matrix" values="0 0 0 0 0 0 0 0 0 0 0 0 0 0 0 0 0 0 127 0" result="hardAlpha"/>
<feOffset/>
<feGaussianBlur stdDeviation="15"/>
<feComposite in2="hardAlpha" operator="arithmetic" k2="-1" k3="1"/>
<feColorMatrix type="matrix" values="0 0 0 0 1 0 0 0 0 1 0 0 0 0 1 0 0 0 0.25 0"/>
<feBlend mode="normal" in2="shape" result="effect1_innerShadow_76_6245"/>
</filter>
</defs>
</svg>
