<svg width="211" height="35" viewBox="0 0 211 35" fill="none" xmlns="http://www.w3.org/2000/svg">
<g filter="url(#filter0_i_76_6244)">
<path fill-rule="evenodd" clip-rule="evenodd" d="M0 17.5V35H105.412H210.824V17.5V0H105.412H0V17.5ZM208.662 17.5V32.9412H193.221H177.779V17.5687C177.779 9.11369 177.81 2.16516 177.848 2.12749C177.886 2.08971 184.834 2.05882 193.289 2.05882H208.662V17.5ZM193.118 5.91057C193.118 5.99076 193.06 6.07991 192.989 6.10863C192.887 6.14991 192.888 6.18028 192.993 6.2544C193.084 6.31884 193.105 6.47685 193.059 6.76252C193.014 7.04365 193.043 7.27176 193.147 7.47157L193.302 7.76609L193.432 7.33024C193.54 6.97087 193.538 6.84837 193.422 6.63168C193.302 6.40696 193.303 6.35394 193.431 6.2649C193.545 6.18584 193.55 6.14826 193.452 6.10863C193.382 6.07991 193.324 5.99076 193.324 5.91057C193.324 5.83038 193.277 5.76471 193.221 5.76471C193.164 5.76471 193.118 5.83038 193.118 5.91057ZM192.641 6.84559C192.675 6.95882 192.744 7.27362 192.795 7.54518C192.886 8.03178 192.969 8.21203 193.062 8.11949C193.142 8.03981 192.84 6.88615 192.706 6.75912C192.608 6.66647 192.594 6.68582 192.641 6.84559ZM193.638 7.08277C193.433 7.84134 193.398 8.13235 193.51 8.13235C193.57 8.13235 193.652 7.91226 193.692 7.64338C193.731 7.3745 193.802 7.05013 193.85 6.92279C193.901 6.78599 193.897 6.69118 193.84 6.69118C193.787 6.69118 193.696 6.86741 193.638 7.08277ZM181.651 6.95697C181.616 7.04653 181.588 7.47497 181.588 7.90918C181.588 9.06129 181.925 9.71466 183.156 10.9546C183.74 11.543 184.319 12.0212 184.647 12.1862C185.316 12.5222 185.361 12.522 185.096 12.1846C184.978 12.0355 184.882 11.8481 184.882 11.7682C184.882 11.6884 184.505 11.2662 184.045 10.8299C183.203 10.0325 182.818 9.53544 182.672 9.05882C182.594 8.80384 182.596 8.80435 182.924 9.11029C183.105 9.28015 183.586 9.83366 183.991 10.3402C184.498 10.9747 184.738 11.2064 184.761 11.0848C184.798 10.8934 184.255 9.86063 183.642 8.95588C183.168 8.25743 181.923 6.79412 181.802 6.79412C181.753 6.79412 181.685 6.86741 181.651 6.95697ZM204.096 7.4129C203.025 8.57047 201.721 10.609 201.783 11.0311C201.81 11.219 201.918 11.1232 202.404 10.4758C203.095 9.55675 203.8 8.79468 203.882 8.87744C204.03 9.02526 203.412 9.90757 202.622 10.6754C201.87 11.4071 201.107 12.4578 201.33 12.455C201.371 12.4543 201.643 12.3169 201.935 12.1494C203.085 11.49 204.518 9.86485 204.812 8.88557C205.021 8.19268 204.978 6.79412 204.748 6.79412C204.705 6.79412 204.411 7.07257 204.096 7.4129ZM192.038 6.99846C191.999 7.06074 192.052 7.34712 192.156 7.63484C192.478 8.53063 192.871 8.41019 192.665 7.47878C192.572 7.06166 192.501 6.94174 192.328 6.91693C192.207 6.89953 192.076 6.93618 192.038 6.99846ZM193.847 7.41681C193.694 8.12854 193.705 8.23529 193.93 8.23529C194.145 8.23529 194.456 7.595 194.456 7.15235C194.456 6.951 194.403 6.89706 194.207 6.89706C193.992 6.89706 193.943 6.96654 193.847 7.41681ZM188.305 7.58409C188.178 7.67303 188.074 7.78637 188.074 7.83609C188.074 8.0115 188.438 7.92235 188.743 7.67231L189.051 7.41918L188.794 7.42082C188.653 7.42175 188.432 7.49525 188.305 7.58409ZM190.137 7.58872C190.026 7.71349 190.019 7.76866 190.111 7.79924C190.179 7.82199 190.235 7.90629 190.235 7.98649C190.235 8.06668 190.282 8.13235 190.338 8.13235C190.395 8.13235 190.441 8.06668 190.441 7.98649C190.441 7.90629 190.499 7.82157 190.569 7.7981C190.662 7.76712 190.65 7.70865 190.525 7.58368C190.318 7.37707 190.325 7.37697 190.137 7.58872ZM196.024 7.56803C195.918 7.68765 195.918 7.75693 196.023 7.92441C196.176 8.16993 196.309 8.19484 196.309 7.97794C196.309 7.89301 196.356 7.82353 196.413 7.82353C196.474 7.82353 196.464 7.73974 196.388 7.61765C196.237 7.37574 196.198 7.37038 196.024 7.56803ZM197.75 7.66912C197.942 7.81066 198.194 7.92503 198.31 7.92318C198.504 7.92029 198.497 7.89806 198.233 7.66582C198.074 7.52613 197.822 7.41176 197.673 7.41176H197.401L197.75 7.66912ZM152.395 8.51838C152.471 9.71888 152.61 12.8107 152.815 17.9118C152.959 21.4737 152.995 22.3099 153.16 25.8208C153.197 26.6322 153.209 27.3154 153.185 27.3392C153.162 27.3629 152.366 27.3824 151.418 27.3824H149.694L149.637 26.636C149.606 26.2255 149.555 25.1949 149.523 24.3456C149.338 19.345 149.157 15.0933 149.129 15.0653C149.111 15.0475 148.023 16.0398 146.711 17.2702L144.324 19.5074L144.324 23.4449L144.324 27.3824H142.574H140.824V17.8578V8.33329L142.548 8.3615L144.272 8.38971L144.296 11.4779C144.309 13.1765 144.32 14.6283 144.321 14.704C144.324 14.8778 144.622 14.6297 146.326 13.0348C147.06 12.3484 148.356 11.1382 149.208 10.3456C150.059 9.55294 151.081 8.5925 151.477 8.21131C151.874 7.83012 152.228 7.51738 152.265 7.51646C152.301 7.51553 152.36 7.96641 152.395 8.51838ZM168.708 8.46691C168.715 8.99068 168.745 9.76654 168.776 10.1912C168.806 10.6158 168.922 13.2361 169.033 16.0139C169.299 22.6956 169.422 25.5034 169.495 26.5331L169.555 27.3824H167.759H165.963L165.895 25.864C165.858 25.0288 165.785 23.4191 165.733 22.2868C165.681 21.1544 165.608 19.232 165.571 18.0147C165.534 16.7974 165.474 15.6304 165.439 15.4212L165.375 15.0408L164.706 15.6691C163.663 16.6488 162.367 17.8783 161.438 18.7703L160.588 19.5855V23.4839V27.3824H158.838H157.088V17.8603V8.33824H158.838H160.588V11.5894C160.588 13.411 160.628 14.8256 160.679 14.8063C160.728 14.7875 161.388 14.1898 162.145 13.4782C162.903 12.7665 164.263 11.4945 165.169 10.6514C166.075 9.80844 166.839 9.09362 166.868 9.06304C167.187 8.71747 168.537 7.51471 168.605 7.51471C168.655 7.51471 168.701 7.94315 168.708 8.46691ZM188.861 8.17981C188.632 8.63285 188.598 8.78263 188.689 8.95187C188.825 9.20623 189 9.22672 189 8.98841C189 8.89299 189.094 8.62153 189.208 8.38507C189.396 7.99719 189.4 7.61765 189.216 7.61765C189.178 7.61765 189.018 7.87057 188.861 8.17981ZM197.165 7.78297C197.131 7.87387 197.203 8.15654 197.327 8.41091C197.458 8.68216 197.525 8.95815 197.487 9.07797C197.429 9.25863 197.447 9.26893 197.637 9.16702C197.917 9.01754 197.912 8.71191 197.623 8.11063C197.374 7.59407 197.267 7.51738 197.165 7.78297ZM31.3011 8.09241C33.2442 8.66888 34.6457 10.2747 35.4535 12.8499C36.352 15.7151 36.3265 20.2015 35.3956 23.0074C34.6378 25.2916 33.3397 26.8787 31.729 27.4903C30.9975 27.7682 29.613 27.866 28.801 27.6972C27.4721 27.4212 26.3055 26.539 25.5192 25.2155C23.7041 22.16 23.37 16.0728 24.8021 12.1487C25.6061 9.94566 26.9343 8.52477 28.6176 8.06647C29.2878 7.88406 30.6431 7.89713 31.3011 8.09241ZM106.876 8.22768C108.162 8.72149 109.196 9.76078 109.965 11.333C110.828 13.097 111.193 14.9399 111.208 17.6029C111.224 20.5023 110.849 22.4904 109.93 24.3815C109.502 25.264 109.277 25.5836 108.622 26.2428C107.515 27.3562 106.514 27.7904 105.047 27.7929C101.665 27.7986 99.6136 25.0381 99.1202 19.8162C98.9785 18.316 99.0584 15.8519 99.2923 14.5147C99.8882 11.108 101.403 8.82422 103.534 8.12C104.353 7.84937 106.032 7.90341 106.876 8.22768ZM124.399 8.10466C124.474 8.29963 124.456 10.987 124.379 11.1949C124.349 11.2742 124.128 11.3249 123.801 11.3271C122.11 11.3386 120.528 11.9517 119.413 13.0277C118.138 14.2591 117.623 15.6455 117.619 17.8603C117.617 18.8086 117.669 19.3935 117.795 19.8676C118.524 22.6086 120.562 24.2941 123.375 24.4825L124.404 24.5515L124.433 26.2882L124.461 28.0249L123.455 27.9535C120.112 27.7163 117.677 26.595 115.968 24.5056C114.928 23.2345 114.195 21.5449 113.947 19.8497C113.77 18.6387 113.882 15.8105 114.146 14.8133C114.993 11.6166 116.888 9.55449 119.904 8.54546C121.026 8.17024 122.322 7.95035 123.493 7.93646C124.198 7.92801 124.342 7.95468 124.399 8.10466ZM137.506 9.59927L137.478 11.2721L136.607 11.3442C135.43 11.4417 134.835 11.5901 133.956 12.006C132.109 12.8792 131.013 14.5483 130.72 16.9315C130.202 21.1439 132.884 24.4905 136.783 24.4985L137.529 24.5V26.2623V28.0245L136.526 27.9533C132.821 27.6905 130.239 26.336 128.503 23.7451C127.487 22.2288 127.035 20.6966 126.954 18.5C126.863 16.0074 127.185 14.3787 128.142 12.5074C128.746 11.3256 130.072 9.95554 131.25 9.29549C132.737 8.46238 134.737 7.95735 136.631 7.93646L137.535 7.92647L137.506 9.59927ZM187.613 8.02488C187.58 8.07903 187.623 8.29315 187.71 8.50068C187.797 8.70821 187.868 9.09629 187.868 9.36302C187.868 10.0123 187.983 10.0911 188.144 9.5515C188.256 9.17391 188.249 9.02496 188.1 8.51838C187.937 7.96888 187.759 7.78822 187.613 8.02488ZM198.443 8.42924C198.345 8.70584 198.265 8.99531 198.265 9.07262C198.266 9.3205 198.484 10.0066 198.542 9.94782C198.574 9.91653 198.638 9.59947 198.685 9.24329C198.732 8.88701 198.801 8.44499 198.838 8.26103C198.948 7.72018 198.65 7.847 198.443 8.42924ZM190.132 8.39331C190.132 8.51766 190.09 8.52868 189.933 8.44478C189.666 8.302 189.618 8.30993 189.618 8.49625C189.618 8.69132 189.917 9.16177 190.041 9.16177C190.091 9.16177 190.136 9.03443 190.141 8.87868C190.145 8.72293 190.173 8.6554 190.202 8.72859C190.243 8.83071 190.289 8.83369 190.4 8.74166C190.62 8.55884 190.581 8.23529 190.338 8.23529C190.222 8.23529 190.132 8.30396 190.132 8.39331ZM192.835 8.31528C192.415 8.36037 192.402 8.50624 192.809 8.59559C192.979 8.63285 193.118 8.72921 193.118 8.8096C193.118 8.8901 193.192 8.95588 193.283 8.95588C193.383 8.95588 193.426 8.89844 193.393 8.81156C193.354 8.71078 193.448 8.64654 193.704 8.59857C193.906 8.56069 194.03 8.49265 193.98 8.44735C193.862 8.33957 193.257 8.26978 192.835 8.31528ZM196.002 8.41544C196.002 8.51457 196.044 8.65972 196.093 8.73816C196.166 8.85191 196.208 8.83596 196.303 8.65879C196.368 8.53681 196.393 8.39156 196.359 8.33607C196.255 8.16715 196 8.22376 196.002 8.41544ZM20.6912 17.8603V27.3824H18.9412H17.1912V19.4559V11.5294H15.0294H12.8676V19.4559V27.3824H11.1176H9.36765V17.8603V8.33824H15.0294H20.6912V17.8603ZM42.0211 11.214L42.0515 14.0898L42.3562 14.4075C42.7908 14.8611 43.4654 15.0294 44.8482 15.0294H46.0118L46.039 11.7096L46.0662 8.38971L47.7904 8.3615L49.5147 8.33329V17.8578V27.3824H47.7647H46.0147V22.8015V18.2206L44.5993 18.2198C43.8208 18.2194 42.8827 18.1714 42.5147 18.113C40.9371 17.8631 39.3157 16.6743 38.8004 15.3897C38.56 14.7905 38.5517 14.6762 38.5209 11.5551L38.4892 8.33824H40.24H41.9908L42.0211 11.214ZM61.4559 9.93382V11.5294H60.0147H58.5735V19.4559V27.3824H56.8235H55.0735V19.4587V11.5351L53.6066 11.5065L52.1397 11.4779L52.1109 10.0417C52.0951 9.25184 52.1052 8.54535 52.1334 8.47185C52.1744 8.3651 53.1151 8.33824 56.8203 8.33824H61.4559V9.93382ZM71.4663 8.53743C72.4908 8.79941 73.2019 9.1699 73.7528 9.72877C74.5933 10.5814 74.8974 11.5172 75.1406 14C75.2555 15.1725 76.5327 26.2533 76.6386 26.9963L76.6936 27.3824H74.9444C73.2133 27.3824 73.1946 27.38 73.1467 27.1507C73.12 27.0233 72.906 24.9967 72.6711 22.6471C72.4362 20.2974 72.2269 18.3171 72.2061 18.2463C72.1773 18.1485 71.636 18.1176 69.9517 18.1176H67.7353L67.7371 18.4007C67.7422 19.2228 67.5123 26.3805 67.4659 26.8419L67.4117 27.3824H65.6628H63.9138L63.9683 26.9449C63.9982 26.7043 64.0499 25.3493 64.0832 23.9338C64.1163 22.5184 64.1612 21.0824 64.1829 20.7426C64.2045 20.4029 64.2507 19.1059 64.2855 17.8603C64.3203 16.6147 64.3669 15.2945 64.3891 14.9265C64.4112 14.5585 64.4566 13.1687 64.49 11.8382C64.5232 10.5077 64.5755 9.17597 64.6062 8.87868L64.6619 8.33824H67.6748C70.3168 8.33824 70.7835 8.36273 71.4663 8.53743ZM91.9689 8.49254C94.255 8.97688 95.8001 10.6363 96.4738 13.3309C96.6677 14.1063 96.7045 14.5257 96.6996 15.9044C96.6873 19.278 95.8149 21.4282 94.065 22.3977C93.5778 22.6676 93.4271 22.6985 92.5956 22.6985C91.7933 22.6985 91.5919 22.6606 91.0927 22.4154C90.7757 22.2597 90.4861 22.1324 90.4493 22.1324C90.4125 22.1324 90.3824 23.3136 90.3824 24.7574V27.3824H88.6324H86.8824V17.8603V8.33824L89.0699 8.33998C90.5919 8.34122 91.4738 8.38765 91.9689 8.49254ZM190.706 8.49996C190.534 8.67176 190.482 9.16177 190.635 9.16177C190.759 9.16177 191.059 8.69132 191.059 8.49625C191.059 8.29305 190.911 8.29469 190.706 8.49996ZM195.433 8.4419C195.358 8.56429 195.759 9.16177 195.917 9.16177C196.062 9.16177 195.934 8.52826 195.767 8.42213C195.595 8.31332 195.51 8.31837 195.433 8.4419ZM196.536 8.46753C196.477 8.53856 196.396 8.72385 196.357 8.87929C196.259 9.27263 196.518 9.25534 196.756 8.85274C196.996 8.44684 196.815 8.13091 196.536 8.46753ZM192.228 8.85212C192.021 8.93571 191.642 9.36785 191.714 9.4394C191.799 9.52463 192.406 9.32276 192.596 9.14632C192.975 8.79354 192.773 8.63224 192.228 8.85212ZM193.726 8.93828C193.918 9.29641 194.765 9.61584 194.765 9.32997C194.765 9.14396 194.339 8.8656 193.929 8.78356C193.628 8.72334 193.616 8.7325 193.726 8.93828ZM180.07 9.55521C180.1 9.88493 180.22 10.3418 180.336 10.5705C180.723 11.3273 182.02 12.3066 183.31 12.8147C184.714 13.3681 184.882 13.1771 183.6 12.4845C182.706 12.0015 182.003 11.4861 181.682 11.0782C181.263 10.5449 181.839 10.8545 183.204 11.8966C183.682 12.2608 184.096 12.5588 184.124 12.5588C184.226 12.5588 184.035 12.0928 183.883 11.9732C183.726 11.8489 183.472 11.618 182.117 10.3666C181.297 9.60904 180.391 8.95588 180.16 8.95588C180.046 8.95588 180.027 9.08384 180.07 9.55521ZM187.398 9.1314C187.28 9.24937 187.262 9.32009 187.343 9.34706C187.535 9.41129 187.765 9.28447 187.765 9.11349C187.765 8.90626 187.616 8.91357 187.398 9.1314ZM192.449 9.05882C192.414 9.11544 192.339 9.16177 192.282 9.16177C192.225 9.16177 192.208 9.11544 192.243 9.05882C192.278 9.00221 192.353 8.95588 192.409 8.95588C192.466 8.95588 192.484 9.00221 192.449 9.05882ZM198.779 9.16177C198.779 9.31597 198.848 9.36765 199.053 9.36765C199.32 9.36765 199.322 9.36271 199.14 9.16177C199.037 9.04853 198.914 8.95588 198.866 8.95588C198.819 8.95588 198.779 9.04853 198.779 9.16177ZM205.753 9.25925C205.163 9.63365 202.706 11.85 202.46 12.2297C202.142 12.7215 202.263 12.6838 203.123 12.023C204.28 11.1349 204.774 10.8089 204.956 10.8139C205.237 10.8216 203.944 11.9007 203.057 12.3986C201.727 13.1451 201.632 13.3621 202.81 12.9652C204.209 12.494 205.797 11.3664 206.182 10.5702C206.396 10.1277 206.492 8.95588 206.314 8.95588C206.269 8.95588 206.016 9.09238 205.753 9.25925ZM189.978 9.36765C190.013 9.42426 190.175 9.47059 190.338 9.47059C190.501 9.47059 190.664 9.42426 190.699 9.36765C190.737 9.30537 190.595 9.26471 190.338 9.26471C190.082 9.26471 189.939 9.30537 189.978 9.36765ZM195.794 9.36765C195.997 9.49859 196.485 9.49859 196.566 9.36765C196.605 9.30444 196.439 9.26532 196.135 9.26625C195.777 9.26738 195.683 9.29559 195.794 9.36765ZM189.721 9.65928C189.721 9.76521 189.827 10.0093 189.956 10.2017C190.134 10.465 190.268 10.5524 190.497 10.5552C190.664 10.5573 190.854 10.5915 190.918 10.6313C191.062 10.72 191.676 10.5174 191.676 10.3811C191.676 10.3269 191.779 10.3545 191.905 10.4427C192.147 10.6118 192.706 10.6634 192.706 10.5166C192.706 10.469 192.593 10.3786 192.455 10.3158C192.203 10.2011 192.151 9.88791 192.335 9.59082C192.393 9.49735 192.349 9.47759 192.174 9.51835C191.774 9.61162 190.306 9.63025 190.004 9.54584C189.768 9.47975 189.721 9.49859 189.721 9.65928ZM194.195 9.65496C194.202 9.75368 194.248 9.89862 194.296 9.97696C194.39 10.1291 194.118 10.3971 193.87 10.3971C193.796 10.3971 193.735 10.4434 193.735 10.5C193.735 10.6534 194.428 10.6245 194.577 10.4649C194.684 10.3501 194.763 10.361 195.05 10.5302C195.335 10.6982 195.439 10.713 195.654 10.6154C195.796 10.5504 195.957 10.5251 196.012 10.559C196.198 10.674 196.607 10.298 196.713 9.91488C196.771 9.70519 196.805 9.52021 196.788 9.50384C196.772 9.48747 196.599 9.52052 196.405 9.57734C196.091 9.66896 194.98 9.63653 194.396 9.51866C194.241 9.48737 194.185 9.52525 194.195 9.65496ZM189.412 9.71538C189.412 9.79331 189.475 9.90953 189.552 9.97356C189.666 10.0679 189.683 10.0408 189.643 9.83181C189.591 9.56107 189.412 9.47069 189.412 9.71538ZM196.886 9.73638C196.777 10.0204 196.814 10.1212 196.978 9.98529C197.146 9.8454 197.188 9.57353 197.04 9.57353C196.99 9.57353 196.92 9.64682 196.886 9.73638ZM188.49 9.92765C188.423 10.0091 188.382 10.206 188.401 10.3651C188.431 10.628 188.467 10.6515 188.794 10.6234C188.992 10.6064 189.31 10.6211 189.501 10.6561L189.848 10.7197L189.63 10.9227C189.413 11.1242 189.339 11.4721 189.492 11.5666C189.536 11.5938 189.679 11.5038 189.811 11.3668C189.943 11.2297 190.139 11.1176 190.246 11.1176C190.353 11.1176 190.441 11.0658 190.441 11.0024C190.441 10.9388 190.65 11.0577 190.904 11.2665C191.356 11.6363 191.477 11.6182 191.261 11.2138C191.094 10.9013 191.256 10.9796 191.637 11.3951C192.049 11.845 192.104 11.6487 191.723 11.0879C191.484 10.7359 191.446 10.716 191.298 10.864C191.201 10.9609 191.068 10.997 190.968 10.9536C190.877 10.9134 190.709 10.8681 190.596 10.8531C190.205 10.8009 189.929 10.6822 189.986 10.5903C190.017 10.5395 189.894 10.4174 189.712 10.3189C189.53 10.2203 189.309 10.0587 189.219 9.95956C189.023 9.74122 188.658 9.72527 188.49 9.92765ZM197.295 9.97593C197.198 10.0839 196.982 10.2285 196.816 10.2972C196.65 10.3659 196.515 10.4748 196.515 10.5392C196.515 10.6037 196.422 10.7142 196.309 10.7849C196.07 10.9342 196.037 11.1176 196.249 11.1176C196.33 11.1176 196.538 11.2376 196.713 11.3842L197.029 11.6507V11.3666C197.029 11.2103 196.955 11.0006 196.865 10.9006C196.711 10.7308 196.725 10.7144 197.072 10.6493C197.276 10.611 197.545 10.606 197.669 10.6385C197.949 10.7119 198.162 10.5447 198.162 10.2507C198.162 9.78291 197.624 9.61244 197.295 9.97593ZM190.509 9.99909C190.372 10.0782 190.286 10.0774 190.205 9.996C190.122 9.91313 190.173 9.88318 190.395 9.88544C190.661 9.88822 190.675 9.90222 190.509 9.99909ZM196.309 9.98529C196.309 10.1143 196.2 10.1143 196 9.98529C195.875 9.90459 195.89 9.88524 196.077 9.8839C196.205 9.88307 196.309 9.92868 196.309 9.98529ZM189.103 10.2941C189.103 10.3507 189.057 10.3971 189 10.3971C188.943 10.3971 188.897 10.3507 188.897 10.2941C188.897 10.2375 188.943 10.1912 189 10.1912C189.057 10.1912 189.103 10.2375 189.103 10.2941ZM197.596 10.2941C197.631 10.3507 197.584 10.3971 197.493 10.3971C197.401 10.3971 197.355 10.3507 197.39 10.2941C197.425 10.2375 197.471 10.1912 197.493 10.1912C197.514 10.1912 197.561 10.2375 197.596 10.2941ZM184.911 11.1584C184.994 11.9639 185.469 12.6106 186.371 13.1471C186.646 13.3108 186.788 13.3127 186.654 13.1507C186.596 13.08 186.448 12.6746 186.324 12.25C186.1 11.4746 185.87 11.1108 185.399 10.7807C184.945 10.4623 184.847 10.538 184.911 11.1584ZM191.779 10.6863C191.779 10.752 191.912 11.0647 192.074 11.3813C192.325 11.8709 192.378 11.9234 192.428 11.7321C192.46 11.6085 192.448 11.408 192.401 11.2868C192.298 11.0193 191.779 10.5187 191.779 10.6863ZM194.425 10.8505C194.13 11.124 193.985 11.5349 194.088 11.8047C194.136 11.9303 194.239 11.7996 194.462 11.3271C194.631 10.9693 194.753 10.6596 194.732 10.6388C194.711 10.618 194.573 10.7132 194.425 10.8505ZM200.899 10.9375C200.584 11.2112 200.454 11.4545 200.179 12.2757C199.995 12.8277 199.879 13.2794 199.921 13.2794C200.089 13.2794 200.902 12.5802 201.221 12.1618C201.507 11.7875 201.559 11.6333 201.559 11.1611C201.559 10.4943 201.451 10.4579 200.899 10.9375ZM192.294 10.8031C192.294 11.0093 192.772 11.4486 192.957 11.4124C193.13 11.3785 193.122 11.3435 192.866 11.0404C192.598 10.7215 192.294 10.5955 192.294 10.8031ZM193.679 10.9783C193.348 11.3358 193.333 11.5865 193.654 11.4149C193.892 11.2877 194.241 10.9157 194.247 10.7831C194.254 10.6076 193.914 10.7246 193.679 10.9783ZM194.767 11.1135C194.463 11.7087 194.513 11.8384 194.875 11.3985C195.245 10.9502 195.433 10.8935 195.226 11.2931C195.086 11.5618 195.113 11.7872 195.259 11.5724C195.299 11.5145 195.505 11.3366 195.717 11.1771C196.176 10.8323 196.228 10.6362 195.801 10.8569C195.504 11.0103 195.176 10.9793 195.176 10.7978C195.176 10.572 194.957 10.7413 194.767 11.1135ZM29.1509 11.2849C28.3236 11.7067 27.6917 13.1746 27.3837 15.3897C27.2494 16.3556 27.2528 19.2493 27.3894 20.2313C27.8141 23.2854 28.8523 24.8617 30.2383 24.5573C31.6362 24.2503 32.5308 21.583 32.5286 17.7281C32.5267 14.3983 32.0071 12.3327 30.9606 11.4946C30.4781 11.1082 29.6791 11.0156 29.1509 11.2849ZM104.326 11.2625C103.49 11.6267 102.895 12.9186 102.521 15.1838C102.361 16.1525 102.363 19.4113 102.524 20.4338C102.845 22.4707 103.471 23.9046 104.237 24.3553C105.326 24.9966 106.356 24.3363 106.982 22.5956C107.953 19.8942 107.862 14.5384 106.81 12.4256C106.264 11.3288 105.256 10.8571 104.326 11.2625ZM90.42 11.3738C90.3884 11.4561 90.3787 12.9723 90.3982 14.7433L90.4338 17.9632L90.7278 18.562C90.9395 18.993 91.1173 19.2064 91.3622 19.3231C91.6799 19.4746 91.7253 19.4721 92.0461 19.2848C92.8022 18.8431 93.1315 17.619 93.0202 15.6629C92.8633 12.9031 92.1805 11.5481 90.8159 11.2885C90.5703 11.2418 90.4617 11.2652 90.42 11.3738ZM190.544 11.3199C190.544 11.3785 190.591 11.4265 190.649 11.4265C190.706 11.4265 190.817 11.5771 190.895 11.761C190.973 11.945 191.095 12.2346 191.167 12.4044L191.297 12.7132L191.377 12.3529C191.445 12.0433 191.418 11.9517 191.181 11.7007C190.847 11.3485 190.544 11.1671 190.544 11.3199ZM195.444 11.6218C195.097 11.9772 195.061 12.0613 195.127 12.3608L195.201 12.6987L195.339 12.4486C195.416 12.311 195.48 12.1154 195.482 12.0138C195.484 11.912 195.601 11.7131 195.743 11.5715C195.884 11.43 196 11.2932 196 11.2674C196 11.1322 195.794 11.2634 195.444 11.6218ZM67.9412 12.131C67.9412 12.462 67.9111 13.2243 67.8744 13.8252L67.8075 14.9176L69.7789 14.9478L71.7502 14.9779L71.7501 14.7409C71.7499 14.3392 71.4264 13.0456 71.2103 12.5829C70.8476 11.8062 70.228 11.5294 68.8523 11.5294H67.9412V12.131ZM192.97 11.7279C192.773 11.9453 192.808 12.163 193.101 12.5427L193.287 12.7837L193.442 12.5427C193.723 12.1034 193.74 11.9456 193.527 11.7329C193.274 11.4795 193.195 11.4788 192.97 11.7279ZM186.529 12.0834C186.529 12.6654 186.718 13.1419 187.082 13.4775C187.447 13.8134 187.423 13.8992 187.002 13.77C186.327 13.563 186.13 13.8574 186.583 14.3953L186.842 14.7034L186.48 14.8229C186.281 14.8887 186.118 14.9771 186.118 15.0194C186.118 15.1308 186.549 15.502 186.768 15.5798C186.947 15.6429 186.945 15.6609 186.743 15.9456C186.43 16.3842 186.472 16.4706 186.995 16.4706C187.439 16.4706 187.457 16.4819 187.395 16.7279C187.322 17.0199 187.416 17.5 187.546 17.5C187.594 17.5 187.802 17.3856 188.008 17.2457C188.248 17.0827 188.382 17.0387 188.382 17.1231C188.382 17.1955 188.446 17.3421 188.524 17.4488C188.661 17.6357 188.677 17.6361 188.945 17.4605C189.199 17.2939 189.239 17.2922 189.403 17.4405C189.502 17.5299 189.657 17.6029 189.747 17.6029C189.921 17.6029 190.084 17.2591 189.985 17.1002C189.954 17.049 190.044 16.9782 190.185 16.9426L190.443 16.8779L190.241 16.4816L190.039 16.0853L189.597 16.1862C189.29 16.2562 189.021 16.251 188.718 16.1693C188.139 16.0129 188.081 15.7653 188.426 14.9047C188.846 13.8544 188.85 13.8664 187.669 12.8797C187.372 12.6315 186.994 12.2424 186.829 12.015L186.529 11.6015V12.0834ZM199.688 12.0103C199.536 12.2402 199.073 12.7031 198.658 13.0389C197.768 13.7604 197.699 13.9963 198.099 14.9683C198.265 15.3706 198.323 15.649 198.271 15.7918C198.161 16.0913 197.596 16.2729 196.977 16.2076C196.487 16.1559 196.452 16.1689 196.276 16.4665C196.082 16.7944 196.116 16.9853 196.366 16.9853C196.456 16.9853 196.515 17.0876 196.515 17.2458C196.515 17.581 196.756 17.671 197.082 17.4575C197.318 17.3028 197.358 17.3026 197.591 17.455C197.879 17.6438 198.059 17.5797 198.059 17.288C198.059 17.0541 198.233 17.0294 198.462 17.2305C198.552 17.3087 198.725 17.4032 198.848 17.4407C199.119 17.5232 199.242 17.244 199.139 16.7771C199.072 16.4721 199.074 16.4706 199.54 16.4706C199.942 16.4706 199.999 16.445 199.944 16.2904C199.909 16.1913 199.806 16.0233 199.716 15.9171C199.564 15.7389 199.566 15.7148 199.743 15.6083C200.268 15.291 200.434 15.1107 200.323 14.9775C200.262 14.9039 200.1 14.8156 199.963 14.7811L199.714 14.7185L199.967 14.345C200.107 14.1394 200.221 13.93 200.221 13.8795C200.221 13.7101 199.884 13.6562 199.488 13.7619C199.058 13.8766 199.05 13.785 199.462 13.4582C199.741 13.2364 200.04 12.3786 199.996 11.9254L199.963 11.5922L199.688 12.0103ZM179.015 12.1565C179.015 12.403 179.948 13.1564 180.588 13.4261C180.94 13.5745 182.018 13.8918 182.984 14.131L184.741 14.5662L184.592 14.3088C184.472 14.1016 184.269 14.0087 183.55 13.8324C183.059 13.7119 182.451 13.5189 182.2 13.4036L181.743 13.1939L182.103 13.187C182.301 13.1833 182.925 13.3358 183.49 13.5261C184.309 13.802 184.564 13.8501 184.753 13.7642C184.967 13.6666 184.903 13.6231 184.087 13.3067C182.815 12.814 181.021 12.285 180.353 12.2057C180.042 12.1688 179.613 12.1132 179.401 12.0822C179.128 12.0426 179.015 12.0644 179.015 12.1565ZM191.783 12.2432C191.664 12.4657 191.638 13.2069 191.746 13.3145C191.846 13.4147 192.19 12.8569 192.19 12.593C192.192 12.0774 191.973 11.889 191.783 12.2432ZM192.357 12.6512C192.172 13.2303 192.186 13.7941 192.385 13.7941C192.433 13.7941 192.598 13.6124 192.752 13.3905L193.031 12.9867L192.823 12.5155C192.708 12.2562 192.6 12.0441 192.583 12.0441C192.566 12.0441 192.464 12.3173 192.357 12.6512ZM193.703 12.439C193.472 13.0162 193.48 13.0859 193.832 13.5283C194.125 13.8975 194.137 13.9022 194.25 13.6909C194.38 13.4482 194.317 13.0445 194.05 12.4177L193.876 12.0062L193.703 12.439ZM194.351 12.3064C194.28 12.4934 194.293 12.6671 194.395 12.9115C194.513 13.1938 194.754 13.4847 194.769 13.3627C194.771 13.3452 194.796 13.1667 194.826 12.9661C194.883 12.569 194.732 12.0441 194.559 12.0441C194.499 12.0441 194.406 12.1622 194.351 12.3064ZM206.912 12.1105C205.674 12.2253 204.596 12.5215 201.88 13.4933C201.536 13.6163 201.535 13.6194 201.764 13.7424C201.961 13.8475 202.163 13.8132 203.062 13.5217C203.647 13.3318 204.255 13.1801 204.412 13.1846C204.667 13.1918 204.642 13.2198 204.184 13.4408C203.901 13.5773 203.319 13.7649 202.891 13.8577C202.241 13.9988 202.087 14.0727 201.952 14.3081L201.79 14.5899L202.266 14.4451C202.528 14.3655 203.136 14.212 203.618 14.1038C205.627 13.6523 206.327 13.354 207.092 12.6245C207.538 12.1985 207.63 12.0313 207.401 12.0606C207.33 12.0696 207.11 12.0921 206.912 12.1105ZM184.265 12.3417C184.265 12.5971 184.975 13.4537 185.33 13.6272C185.672 13.7941 185.782 13.8038 186.135 13.6981C186.466 13.5989 186.521 13.5484 186.426 13.4331C186.098 13.0375 184.265 12.1119 184.265 12.3417ZM201.713 12.4424C201.121 12.6873 200.737 12.9083 200.3 13.2566L199.916 13.5626L200.37 13.6899C200.77 13.8016 200.873 13.7937 201.216 13.6255C201.599 13.4378 202.241 12.5851 202.162 12.3706C202.141 12.3145 201.948 12.3454 201.713 12.4424ZM191.34 13.4719C191.244 13.6345 191.025 13.8257 190.853 13.8969C190.605 13.9997 190.565 14.0554 190.658 14.1676C190.951 14.5206 191.438 14.1795 191.54 13.5495C191.613 13.0993 191.57 13.0827 191.34 13.4719ZM193.015 13.4338C192.9 13.6488 192.9 13.7336 193.015 13.9485C193.09 14.0901 193.19 14.2059 193.236 14.2059C193.281 14.2059 193.395 14.0901 193.487 13.9485C193.644 13.7101 193.644 13.6722 193.487 13.4338C193.395 13.2923 193.281 13.1765 193.236 13.1765C193.19 13.1765 193.09 13.2923 193.015 13.4338ZM194.971 13.561C194.971 14.1146 195.595 14.5187 195.894 14.1586C195.996 14.0349 195.971 13.9967 195.751 13.9415C195.605 13.9047 195.369 13.7371 195.228 13.5691L194.971 13.2637V13.561ZM191.363 14.2167C190.844 14.7765 190.44 14.881 190.211 14.5147C190.039 14.238 189.961 14.2554 189.898 14.5848C189.828 14.9476 189.992 15.288 190.303 15.4299C190.643 15.5846 191.045 15.3707 191.384 14.856C191.622 14.4935 191.918 13.7926 191.857 13.7368C191.843 13.7236 191.621 13.9396 191.363 14.2167ZM191.985 13.8638C191.985 13.9654 191.861 14.2939 191.709 14.5939C191.462 15.0835 191.45 15.1554 191.591 15.2968C191.732 15.4382 191.771 15.4016 191.97 14.9396C192.205 14.3934 192.259 13.8481 192.088 13.7426C192.032 13.7076 191.985 13.7622 191.985 13.8638ZM194.319 13.9153C194.254 14.174 194.408 14.7617 194.669 15.2487C194.785 15.4663 194.799 15.4686 194.927 15.293C195.042 15.1355 195.027 15.0364 194.826 14.6311C194.696 14.3689 194.544 14.04 194.488 13.9004L194.387 13.6463L194.319 13.9153ZM194.71 13.979C194.801 14.3457 195.204 15.032 195.471 15.274C195.956 15.7126 196.618 15.384 196.618 14.7046C196.618 14.2652 196.526 14.2044 196.333 14.5147C196.108 14.8747 195.715 14.7733 195.152 14.2106C194.692 13.7508 194.649 13.728 194.71 13.979ZM184.882 13.8922C184.219 14.0614 184.996 14.7206 185.858 14.7206C186.152 14.7206 186.419 14.6935 186.452 14.6605C186.485 14.6274 186.423 14.4497 186.315 14.2656C186.147 13.9811 186.054 13.9284 185.696 13.9144C185.465 13.9052 185.245 13.8818 185.208 13.8622C185.17 13.8426 185.024 13.8561 184.882 13.8922ZM201.225 13.8537C201.194 13.8845 200.985 13.9122 200.76 13.9153C200.401 13.9202 200.33 13.9626 200.189 14.2588C200.101 14.4446 200.056 14.6245 200.09 14.6586C200.206 14.7748 201.05 14.7209 201.399 14.5749C201.74 14.4325 202.048 14.0555 201.894 13.969C201.732 13.8784 201.278 13.8002 201.225 13.8537ZM192.533 14.119C192.161 14.5198 192.135 14.853 192.449 15.195L192.722 15.4926L192.663 15.1496C192.631 14.9611 192.654 14.7155 192.713 14.6042C192.773 14.4928 192.807 14.2837 192.789 14.1397L192.757 13.8777L192.533 14.119ZM193.702 14.0406C193.669 14.1283 193.691 14.3427 193.751 14.5169C193.812 14.6911 193.835 14.9684 193.802 15.1329C193.754 15.371 193.774 15.42 193.897 15.3726C193.982 15.34 194.117 15.1875 194.196 15.0337C194.321 14.7918 194.32 14.714 194.187 14.4543C193.949 13.9914 193.777 13.8451 193.702 14.0406ZM179.118 14.2044C179.118 14.3306 180.112 14.8337 180.868 15.0895C181.565 15.3256 184.062 15.378 184.136 15.1581C184.165 15.0708 184.058 15.0294 183.804 15.0294C183.254 15.0294 181.964 14.8191 181.851 14.7109C181.699 14.5663 182.99 14.6026 183.75 14.7644C184.118 14.8429 184.46 14.8681 184.51 14.8206C184.616 14.7196 183.825 14.4753 182.684 14.2569C181.769 14.0818 179.118 14.0428 179.118 14.2044ZM204.029 14.2059C203.186 14.3493 201.852 14.7458 201.938 14.8275C201.984 14.8718 202.346 14.8444 202.743 14.7666C203.484 14.621 204.837 14.5651 204.717 14.685C204.613 14.7887 203.312 15.0214 202.811 15.0256C202.501 15.0283 202.378 15.0687 202.408 15.1581C202.474 15.3569 204.268 15.3768 205.177 15.1889C205.996 15.0193 207.468 14.3558 207.371 14.1993C207.301 14.0861 204.704 14.0912 204.029 14.2059ZM192.925 14.5315C192.757 14.8009 192.782 15.0763 192.999 15.344C193.232 15.6322 193.489 15.5592 193.643 15.1608C193.858 14.6078 193.224 14.0527 192.925 14.5315ZM184.779 14.8911C184.545 14.9846 184.162 15.3583 184.214 15.4426C184.24 15.4836 183.893 15.5249 183.444 15.5344C181.686 15.572 180.377 15.8445 179.71 16.3123C179.522 16.4439 179.544 16.4601 180.003 16.529C180.593 16.6175 183.072 16.5117 183.801 16.3668C184.417 16.2445 184.882 16.0653 184.882 15.9503C184.882 15.7987 184.503 15.7429 184.215 15.8523C183.819 16.0028 181.963 16.1027 182.301 15.9554C182.724 15.7708 184.397 15.5609 184.657 15.6597C184.991 15.7859 185.599 15.7643 185.952 15.6136L186.25 15.4866L186.003 15.2001C185.755 14.9112 185.126 14.7525 184.779 14.8911ZM200.838 14.8903C200.678 14.9534 200.33 15.3387 200.326 15.4568C200.322 15.5596 200.935 15.75 201.269 15.75C201.631 15.75 202.279 15.4909 202.279 15.3459C202.279 15.0562 201.246 14.7294 200.838 14.8903ZM191.942 15.4256C191.717 15.8609 191.739 16.2598 192.004 16.5415L192.228 16.7801L192.415 16.4967C192.68 16.094 192.656 15.6295 192.354 15.3457L192.104 15.1116L191.942 15.4256ZM191.082 15.468C190.807 15.7603 190.799 15.9778 191.041 16.5159L191.223 16.9215L191.398 16.5518C191.606 16.1131 191.624 15.6525 191.442 15.4039C191.319 15.236 191.296 15.2401 191.082 15.468ZM194.052 15.5065C193.782 15.8489 193.784 15.9981 194.062 16.448L194.286 16.8101L194.525 16.5316C194.805 16.2069 194.825 15.9595 194.608 15.539C194.415 15.1654 194.324 15.1601 194.052 15.5065ZM195.041 15.4457C194.88 15.6752 194.905 16.2344 195.091 16.5993C195.219 16.8486 195.329 16.8247 195.469 16.5172C195.651 16.1179 195.616 15.6007 195.393 15.3992C195.207 15.2311 195.189 15.2333 195.041 15.4457ZM202.375 15.5487C202.321 15.582 202.672 15.6621 203.154 15.7266C204.42 15.896 204.649 16.0889 203.495 16.0138C203.004 15.9818 202.479 15.9094 202.33 15.8526C202.181 15.796 201.943 15.7789 201.8 15.8146C201.387 15.9183 201.708 16.1378 202.541 16.3217C203.419 16.5156 206.109 16.6335 206.603 16.4998L206.963 16.4023L206.548 16.1886C206.32 16.071 205.88 15.9026 205.57 15.8142C204.982 15.6464 202.545 15.444 202.375 15.5487ZM190.132 15.8213C190.132 16.0232 190.427 16.5735 190.536 16.5735C190.656 16.5735 190.75 16.3089 190.75 15.9732C190.75 15.7392 190.704 15.6969 190.441 15.6876C190.239 15.6804 190.132 15.7267 190.132 15.8213ZM195.815 16.1023C195.855 16.627 196.019 16.6696 196.237 16.2117C196.476 15.712 196.46 15.652 196.099 15.6769C195.801 15.6975 195.787 15.7184 195.815 16.1023ZM185.443 15.8599C185.046 15.9753 184.63 16.4073 184.712 16.6198C184.789 16.8221 185.382 16.8314 185.846 16.6375C186.168 16.5029 186.632 16.0315 186.632 15.839C186.632 15.726 185.857 15.7396 185.443 15.8599ZM192.989 15.8612C192.751 15.9996 192.762 16.2155 193.027 16.6447L193.245 16.9973L193.49 16.6365C193.779 16.2114 193.789 16.127 193.574 15.9117C193.387 15.7257 193.243 15.7131 192.989 15.8612ZM199.912 15.8114C199.912 16.0157 200.303 16.4717 200.6 16.6132C200.998 16.8032 201.719 16.8344 201.823 16.6662C201.933 16.4876 201.523 16.0195 201.137 15.8844C200.772 15.7563 199.912 15.7049 199.912 15.8114ZM183.029 16.6728C181.991 16.8955 181.302 17.2598 180.857 17.8226C180.067 18.8202 181.279 18.5798 184.676 17.0651C184.898 16.9664 184.907 16.9443 184.745 16.9071C184.641 16.8833 184.173 16.9885 183.704 17.1408C182.733 17.4567 182.229 17.4595 182.821 17.1458C183.017 17.0416 183.481 16.8504 183.85 16.7211C184.701 16.4234 184.301 16.3999 183.029 16.6728ZM190.691 16.6097C190.645 16.729 190.671 16.8342 190.761 16.8912C191.076 17.0907 191.155 16.949 190.912 16.6189C190.77 16.4263 190.762 16.426 190.691 16.6097ZM194.585 16.7806C194.302 17.1327 194.289 17.5559 194.549 17.9505L194.745 18.2465L195.024 17.8246C195.325 17.3697 195.318 17.1069 194.997 16.7129L194.816 16.492L194.585 16.7806ZM202.729 16.7426C203.595 17.0618 204.183 17.3967 203.875 17.3954C203.607 17.3944 202.74 17.1591 202.268 16.9591C202.047 16.8656 201.839 16.8365 201.756 16.8878C201.581 16.9961 201.593 17.0051 202.279 17.269C202.591 17.3887 203.224 17.6535 203.687 17.8574C204.63 18.2726 205.732 18.5155 205.902 18.3456C206.056 18.1909 205.226 17.3302 204.632 17.0293C204.205 16.8126 202.65 16.4607 202.189 16.4762C202.097 16.4793 202.34 16.5992 202.729 16.7426ZM185.887 16.8129C185.675 16.936 185.502 17.0938 185.501 17.1635C185.5 17.3341 185.948 17.4363 186.346 17.3564L186.671 17.2916L186.446 17.5311C186.214 17.7774 186.138 18.2206 186.327 18.2206C186.52 18.2206 187.093 17.9464 187.22 17.7937C187.288 17.7112 187.317 17.5377 187.283 17.4082C187.235 17.2271 187.165 17.1835 186.979 17.2191L186.736 17.2654L187.005 17.0167C187.152 16.8799 187.256 16.754 187.236 16.7367C187.215 16.7195 186.99 16.6793 186.735 16.6472C186.373 16.6017 186.188 16.6379 185.887 16.8129ZM191.388 16.8977C191.149 17.2753 191.224 17.6383 191.617 18.0075L191.856 18.2314L192.023 17.8121C192.237 17.2785 192.235 17.2327 191.978 16.8725C191.71 16.4952 191.641 16.4982 191.388 16.8977ZM192.514 16.753C192.346 17.0679 192.37 17.672 192.563 17.9668C192.773 18.287 192.849 18.2854 192.998 17.9584C193.186 17.5474 193.14 17.1254 192.874 16.817C192.632 16.5353 192.631 16.5351 192.514 16.753ZM193.549 16.9248C193.336 17.2367 193.323 17.32 193.423 17.6918C193.484 17.9212 193.576 18.1345 193.627 18.1657C193.776 18.2579 194.147 17.7029 194.147 17.388C194.147 17.091 193.956 16.573 193.847 16.5743C193.814 16.5747 193.68 16.7324 193.549 16.9248ZM195.521 16.7324C195.487 16.8198 195.488 16.919 195.522 16.953C195.611 17.0419 195.906 16.7736 195.838 16.6648C195.75 16.5227 195.588 16.5573 195.521 16.7324ZM199.622 16.6485C199.431 16.6721 199.298 16.7409 199.32 16.8059C199.453 17.2056 200.574 17.556 200.888 17.2959C200.972 17.2255 201.016 17.1261 200.985 17.0751C200.913 16.959 200.155 16.5678 200.045 16.59C200 16.5991 199.81 16.6254 199.622 16.6485ZM195.732 17.1C195.636 17.2064 195.561 17.421 195.566 17.5769C195.578 17.9613 196.277 19.4508 196.351 19.25C196.653 18.4294 196.79 17.8088 196.669 17.8088C196.527 17.8088 196.412 17.5885 196.411 17.3114C196.411 17.217 196.297 17.0872 196.159 17.0231C195.949 16.9259 195.878 16.9388 195.732 17.1ZM190.323 17.0543C190.226 17.08 190.125 17.2517 190.087 17.4541C190.045 17.6739 189.961 17.8088 189.863 17.8088C189.761 17.8088 189.726 17.8718 189.763 17.989C189.793 18.0881 189.904 18.4471 190.009 18.7868L190.198 19.4044L190.577 18.5921C191.147 17.3702 191.062 16.858 190.323 17.0543ZM184.068 17.5034C183.535 17.7285 182.943 18.032 182.751 18.1779C182.385 18.4578 181.963 19.042 181.849 19.4301C181.787 19.6381 181.816 19.6618 182.127 19.6618C182.596 19.6618 183.383 19.2461 184.007 18.6685C184.29 18.4066 184.719 18.0124 184.96 17.7926C185.538 17.2642 185.515 17.1914 184.908 17.6305C184.203 18.141 183.442 18.5648 183.367 18.4894C183.235 18.3577 183.925 17.7838 184.625 17.4428C185.609 16.9634 185.256 17.0019 184.068 17.5034ZM199.247 17.3659C199.195 17.5722 199.237 17.6956 199.423 17.8811C199.729 18.1875 200.248 18.2483 200.302 17.984C200.352 17.7416 200.168 17.5297 199.697 17.2898L199.315 17.0946L199.247 17.3659ZM201.949 17.4919C202.643 17.8602 203.281 18.3855 203.17 18.4966C203.093 18.5737 202.268 18.1248 201.68 17.685C201.012 17.1863 200.87 17.225 201.479 17.7397C201.721 17.9443 202.197 18.3677 202.537 18.6808C203.264 19.3508 203.846 19.6618 204.372 19.6618H204.753L204.597 19.2757C204.32 18.5909 203.473 17.909 202.359 17.4743C201.815 17.262 201.332 17.0895 201.284 17.0909C201.237 17.0925 201.536 17.2728 201.949 17.4919ZM187.769 17.5623C187.573 17.6263 187.284 17.8335 187.126 18.0229C186.844 18.3601 186.744 18.7353 186.935 18.7353C187.162 18.7353 187.632 18.4961 187.893 18.2462L188.176 17.9762V18.4108C188.176 18.6499 188.252 18.9611 188.345 19.1025C188.504 19.3456 188.524 19.3501 188.705 19.1859C188.811 19.0903 188.897 18.9036 188.897 18.7708C188.897 18.638 188.943 18.5294 189 18.5294C189.057 18.5294 189.103 18.6041 189.103 18.6956C189.103 19.0163 189.545 19.6523 189.84 19.755C190.001 19.8111 190.132 19.8246 190.131 19.7851C190.13 19.7456 190.021 19.3657 189.889 18.941C189.454 17.5411 189.102 17.1306 189.011 17.9197C188.974 18.2457 188.966 18.2528 188.904 18.0147C188.867 17.8732 188.792 17.7566 188.738 17.7558C188.684 17.7549 188.581 17.7172 188.51 17.672C188.428 17.6199 188.354 17.6581 188.307 17.7766C188.244 17.9377 188.226 17.9278 188.179 17.7045C188.128 17.4593 188.106 17.4519 187.769 17.5623ZM198.368 17.6399C198.368 17.7802 198.395 17.9672 198.429 18.0557C198.558 18.3913 199.706 18.8915 199.706 18.612C199.706 18.3515 199.261 17.8166 198.906 17.6517C198.695 17.5532 198.487 17.453 198.445 17.4288C198.402 17.4047 198.368 17.4997 198.368 17.6399ZM185.024 17.9911C183.926 18.905 183.346 19.7406 183.341 20.415C183.339 20.668 183.368 20.6962 183.57 20.636C183.884 20.5423 184.676 20.0825 184.679 19.992C184.681 19.952 184.981 19.5485 185.347 19.0956C186.13 18.126 186.22 17.7949 185.523 18.4462C184.931 19.0007 184.488 19.3016 184.398 19.2114C184.296 19.1099 184.871 18.5437 185.467 18.157C186.006 17.8079 186.214 17.6029 186.029 17.6029C185.974 17.6029 185.861 17.577 185.778 17.5453C185.69 17.5115 185.379 17.6956 185.024 17.9911ZM197.074 17.7532C196.983 17.8924 196.778 18.427 196.618 18.9411C196.329 19.8687 196.329 19.8752 196.55 19.808C197.132 19.6308 197.441 19.0463 197.441 18.1209C197.441 17.454 197.338 17.3505 197.074 17.7532ZM200.607 17.5709C200.319 17.6462 200.393 17.7698 200.909 18.0723C201.479 18.4063 202.26 19.1706 202.09 19.2276C201.965 19.269 201.788 19.1491 201.002 18.4892C200.416 17.998 200.268 18.0718 200.756 18.6116C200.953 18.8296 201.304 19.2655 201.537 19.5804C201.971 20.1681 202.425 20.5111 202.923 20.6285C203.168 20.6862 203.206 20.664 203.205 20.4615C203.203 20.0899 202.759 19.2366 202.321 18.7654C201.899 18.3103 200.931 17.4916 200.84 17.5119C200.811 17.5185 200.706 17.5451 200.607 17.5709ZM197.609 17.9375C197.499 18.3464 197.539 18.7472 197.721 19.054C197.818 19.2184 197.928 19.3529 197.966 19.3529C198.004 19.3529 198.11 19.1953 198.202 19.0028C198.506 18.3618 198.36 17.7059 197.913 17.7059C197.749 17.7059 197.651 17.7807 197.609 17.9375ZM191.052 18.3069C190.953 18.6363 190.962 18.7572 191.105 19.0346C191.242 19.2988 191.307 19.3433 191.419 19.2502C191.667 19.0444 191.708 18.5636 191.507 18.2235C191.406 18.0521 191.289 17.9118 191.247 17.9118C191.204 17.9118 191.117 18.0895 191.052 18.3069ZM192.034 18.1584C191.796 18.5224 191.796 18.9844 192.036 19.2487C192.279 19.5175 192.339 19.51 192.483 19.1937C192.658 18.8102 192.63 18.3793 192.412 18.1102L192.221 17.8741L192.034 18.1584ZM194.048 18.2374C193.793 18.6562 193.789 18.7742 194.015 19.1569C194.23 19.521 194.283 19.5261 194.496 19.2021C194.719 18.8616 194.705 18.4626 194.46 18.1507L194.258 17.894L194.048 18.2374ZM195.028 18.1406C194.839 18.4108 194.822 18.7644 194.984 19.0766C195.155 19.4048 195.165 19.4079 195.329 19.191C195.486 18.9829 195.525 18.535 195.42 18.1434C195.342 17.8509 195.231 17.8502 195.028 18.1406ZM193.035 18.4185C192.869 18.6906 192.848 18.817 192.929 19.0499C193.093 19.5191 193.27 19.6042 193.465 19.3069C193.684 18.9728 193.674 18.6405 193.435 18.3296L193.242 18.0783L193.035 18.4185ZM185.875 18.8442C185.309 19.4727 184.882 20.3361 184.882 20.8502C184.882 21.2759 184.921 21.2762 185.589 20.8548C185.846 20.6924 186.136 20.3646 186.358 19.9859C186.554 19.6515 186.794 19.2564 186.891 19.108C187.061 18.8488 187.06 18.8382 186.867 18.8382C186.741 18.8382 186.549 19.0206 186.348 19.3305C185.979 19.8998 185.633 20.241 185.53 20.1375C185.421 20.0289 185.804 19.3807 186.307 18.821C186.682 18.404 186.721 18.3235 186.548 18.3235C186.431 18.3235 186.141 18.5481 185.875 18.8442ZM199.809 18.3686C199.809 18.3934 199.953 18.5672 200.129 18.7546C200.543 19.1949 201.044 19.9674 201.044 20.1654C201.044 20.3749 200.439 19.7822 200.112 19.2524C199.974 19.0276 199.779 18.8426 199.68 18.841C199.581 18.8395 199.5 18.8577 199.5 18.8816C199.5 18.9054 199.721 19.2876 199.992 19.7308C200.344 20.3068 200.626 20.6322 200.982 20.8713C201.255 21.0553 201.526 21.2059 201.584 21.2059C201.756 21.2059 201.6 20.4172 201.314 19.8355C200.981 19.1585 200.257 18.3235 200.003 18.3235C199.896 18.3235 199.809 18.3438 199.809 18.3686ZM187.836 18.5029C187.791 18.5733 187.708 18.9152 187.652 19.263C187.548 19.9049 187.249 20.6334 187.177 20.4196C187.137 20.3001 187.367 19.2416 187.505 18.9154C187.549 18.8103 187.536 18.7353 187.473 18.7353C187.414 18.7353 187.213 19.0455 187.027 19.4246C186.754 19.9779 186.687 20.2402 186.685 20.754C186.685 21.106 186.719 21.4297 186.763 21.4732C186.872 21.5831 187.368 21.1947 187.58 20.8333C187.874 20.332 188.124 18.0591 187.836 18.5029ZM198.528 19.0091C198.664 20.3468 198.782 20.7184 199.208 21.1438C199.704 21.6395 199.857 21.5471 199.846 20.7604C199.838 20.2039 199.414 19.0661 199.126 18.8271C198.943 18.6753 198.947 18.8057 199.14 19.3529C199.225 19.5936 199.29 19.9584 199.286 20.1637L199.277 20.5368L199.12 20.1765C199.034 19.9783 198.908 19.5183 198.841 19.1541C198.679 18.2789 198.442 18.1693 198.528 19.0091ZM188.127 19.549C188.036 20.0838 188.151 21.1321 188.327 21.3719C188.45 21.5412 188.465 21.5394 188.57 21.3431C188.692 21.1144 188.895 19.9862 188.896 19.527C188.898 19.0462 188.721 19.3116 188.668 19.8716C188.591 20.6704 188.383 20.7759 188.381 20.0169C188.379 19.2318 188.227 18.953 188.127 19.549ZM198.239 19.2062C198.197 19.2492 198.162 19.5518 198.162 19.8788C198.162 20.4646 198.037 20.7415 197.915 20.4248C197.881 20.3356 197.852 20.0927 197.851 19.8849C197.85 19.6773 197.805 19.4379 197.75 19.3529C197.527 19.0084 197.734 21.0528 197.959 21.4162C198.112 21.6636 198.269 21.3949 198.359 20.7317C198.447 20.0844 198.367 19.0764 198.239 19.2062ZM191.495 19.4544C191.335 19.7105 191.333 19.9881 191.488 20.3278L191.608 20.5918L191.796 20.307C191.989 20.0149 192.033 19.7006 191.923 19.4129C191.837 19.1901 191.649 19.2084 191.495 19.4544ZM192.415 19.5816C192.149 20.0124 192.14 20.1638 192.352 20.6687L192.513 21.0515L192.763 20.6397C193.062 20.1483 193.082 19.7681 192.827 19.4522L192.638 19.2198L192.415 19.5816ZM193.636 19.4491C193.464 19.771 193.514 20.3042 193.752 20.6912L193.975 21.0515L194.176 20.596C194.376 20.141 194.376 20.1399 194.16 19.6952C193.923 19.206 193.797 19.1474 193.636 19.4491ZM194.601 19.5074C194.524 19.8136 194.598 20.1524 194.801 20.4304C194.941 20.6222 194.956 20.6104 195.078 20.2034C195.189 19.8323 195.183 19.7385 195.035 19.512C194.818 19.181 194.683 19.1796 194.601 19.5074ZM197.256 19.5298C197.195 19.6873 197.115 19.9668 197.079 20.1507C197.043 20.3347 196.965 20.4853 196.905 20.4853C196.84 20.4853 196.823 20.3606 196.861 20.1682C196.907 19.9404 196.889 19.8631 196.797 19.8937C196.641 19.9457 196.618 21.1931 196.772 21.2316C196.933 21.272 197.216 20.5978 197.323 19.9191C197.433 19.2189 197.415 19.1157 197.256 19.5298ZM189.159 19.8309C189.236 20.3713 189.593 21.3088 189.722 21.3088C189.845 21.3088 189.926 21.0218 189.926 20.5882C189.926 20.371 189.898 20.1201 189.864 20.0305C189.758 19.7536 189.618 19.8507 189.616 20.2022C189.614 20.6291 189.451 20.4045 189.356 19.8446C189.256 19.2486 189.073 19.236 189.159 19.8309ZM192.983 20.6707C192.816 21.0881 192.879 21.6865 193.139 22.1715C193.25 22.3787 193.266 22.369 193.442 21.9779C193.658 21.4973 193.682 20.9488 193.502 20.5964C193.306 20.2125 193.158 20.2337 192.983 20.6707ZM191.686 20.7002C191.488 20.9679 191.467 21.0642 191.56 21.2686C191.682 21.5375 191.875 21.5839 192.068 21.3912C192.225 21.2334 192.22 20.9103 192.054 20.6118L191.924 20.378L191.686 20.7002ZM194.462 20.576C194.203 21.0608 194.472 21.6971 194.816 21.4118C195.027 21.2365 195.01 20.9279 194.771 20.6247C194.577 20.3776 194.569 20.3764 194.462 20.576ZM190.886 21.2969C190.156 21.8255 190.233 21.9876 191.057 21.6579C191.491 21.4841 191.5 21.4713 191.383 21.175C191.316 21.0058 191.273 21.0165 190.886 21.2969ZM195.137 21.1599C195.027 21.4476 195.063 21.4935 195.539 21.6755C196.24 21.9429 196.254 21.7843 195.575 21.2746C195.254 21.0338 195.192 21.0175 195.137 21.1599ZM193.897 21.3666C194.11 22.2505 194.769 22.8072 195.151 22.4254C195.3 22.2761 195.134 21.9265 194.913 21.9265C194.829 21.9265 194.55 21.7324 194.292 21.4953L193.825 21.0641L193.897 21.3666ZM192.294 21.4515C192.153 21.5903 191.875 21.7926 191.676 21.9011C191.225 22.1482 191.155 22.4098 191.516 22.5004C191.865 22.5879 192.215 22.3522 192.44 21.8786C192.695 21.3415 192.623 21.1294 192.294 21.4515ZM185.526 21.4799C185.143 21.6342 185.603 22.4718 186.239 22.7796C186.599 22.9543 186.941 22.8648 186.941 22.5956C186.941 22.3094 185.924 21.357 185.685 21.4199C185.668 21.4243 185.597 21.4514 185.526 21.4799ZM200.611 21.4962C200.314 21.6147 199.603 22.3453 199.603 22.5322C199.603 23.0706 200.207 22.9667 200.783 22.3294C201.171 21.8996 201.221 21.733 201.024 21.5353C200.886 21.3982 200.863 21.3959 200.611 21.4962ZM191.082 21.8186C190.561 22.1961 190.469 22.3382 190.747 22.3382C190.985 22.3382 191.726 21.6606 191.585 21.5731C191.536 21.543 191.31 21.6535 191.082 21.8186ZM194.816 21.7206C194.851 21.7772 194.948 21.8235 195.03 21.8235C195.113 21.8235 195.234 21.9393 195.298 22.0809C195.375 22.249 195.499 22.3382 195.657 22.3382C195.868 22.3382 195.883 22.3135 195.778 22.1443C195.711 22.0378 195.53 21.8756 195.375 21.784C195.063 21.5995 194.717 21.5603 194.816 21.7206ZM192.607 22.1581C192.609 22.3988 192.676 22.7114 192.757 22.8529C192.973 23.2301 192.945 23.6377 192.686 23.8783C192.409 24.1371 192.643 24.1723 192.996 23.9249C193.209 23.7757 193.251 23.7757 193.479 23.9249C193.616 24.0147 193.81 24.0882 193.909 24.0882C194.061 24.0882 194.053 24.0627 193.861 23.928C193.585 23.7344 193.568 23.3913 193.801 22.7393C193.907 22.4442 193.944 22.157 193.899 21.978C193.812 21.6334 193.725 21.7151 193.486 22.3646C193.387 22.6339 193.267 22.8303 193.22 22.801C193.172 22.7716 193.057 22.5165 192.963 22.2341C192.754 21.6052 192.602 21.5728 192.607 22.1581ZM185.191 22.205C185.191 22.3105 185.094 22.6732 184.975 23.011C184.693 23.8117 184.743 24.5125 185.127 25.1285C185.846 26.2825 185.81 26.2514 186.375 26.2237C186.722 26.2068 186.881 26.1565 186.864 26.0699C186.829 25.8932 186.991 25.908 187.147 26.0956C187.236 26.2022 187.24 26.25 187.16 26.25C186.961 26.25 187.033 26.4724 187.25 26.529C187.493 26.5926 187.518 26.719 187.303 26.8015C187.214 26.8354 187.16 26.8075 187.174 26.7353C187.188 26.6623 187.104 26.6202 186.971 26.6341C186.807 26.6513 186.76 26.6152 186.802 26.5054C186.847 26.3868 186.772 26.3533 186.463 26.3545C185.977 26.3564 185.781 26.4687 185.868 26.6957C185.944 26.8932 186.145 26.9154 186.438 26.7585C186.624 26.6588 186.631 26.6673 186.511 26.8589C186.332 27.1461 186.52 27.3467 186.819 27.1869C186.971 27.1052 187.038 27.1068 187.067 27.1927C187.095 27.2772 187.191 27.2692 187.41 27.1643C187.725 27.0128 187.829 26.641 187.631 26.3787C187.561 26.2856 187.594 26.25 187.752 26.25C187.872 26.25 187.971 26.1921 187.971 26.1213C187.971 26.0506 188.107 25.7045 188.274 25.3525C188.611 24.6394 189.36 23.8222 189.77 23.7192C190.114 23.6328 190.043 23.4096 189.684 23.4488C189.495 23.4694 189.412 23.4301 189.412 23.3201C189.412 23.0888 189.144 23.1268 188.894 23.3934C188.775 23.5208 188.459 24.0646 188.193 24.6018C187.668 25.6626 187.551 25.7496 186.996 25.4863C186.638 25.3167 186.398 25.3497 186.094 25.6101C185.934 25.748 185.907 25.736 185.811 25.4848C185.669 25.1088 185.678 24.9554 185.867 24.5898C186.055 24.2259 186.563 23.9809 186.968 24.0584C187.307 24.1231 187.764 24.6313 187.766 24.9454C187.768 25.1275 187.786 25.1404 187.868 25.0147C188.036 24.7541 187.983 24.5174 187.681 24.1795C187.45 23.9202 187.291 23.8464 186.884 23.8082C186.46 23.7685 186.311 23.8044 185.989 24.0242C185.777 24.1693 185.604 24.2546 185.605 24.2138C185.609 24.0097 186.1 23.3052 186.311 23.2001C186.549 23.0815 186.549 23.079 186.337 23.0116C186.218 22.9739 185.912 22.7338 185.656 22.4781C185.3 22.1222 185.191 22.0581 185.191 22.205ZM189.772 22.1429C189.602 22.195 189.371 22.3085 189.258 22.395C189.081 22.5303 189.074 22.5664 189.206 22.6535C189.291 22.7092 189.462 22.7374 189.587 22.7162C189.713 22.6947 189.837 22.7394 189.867 22.8167C189.953 23.0414 190.271 22.9708 190.483 22.68L190.68 22.4107L190.38 22.4858L190.081 22.5609L190.33 22.2951L190.58 22.0294L190.33 22.0387C190.193 22.0438 189.942 22.0907 189.772 22.1429ZM196.006 22.1913C196.247 22.4809 196.908 22.7586 197.188 22.6881C197.433 22.6269 197.439 22.6097 197.285 22.4394C197.128 22.2653 196.414 22.0294 196.045 22.0294C195.899 22.0294 195.893 22.0549 196.006 22.1913ZM200.992 22.3436C200.879 22.4705 200.611 22.7027 200.397 22.8597C200.05 23.1134 200.029 23.1525 200.209 23.2095C200.435 23.2812 200.839 23.9011 200.837 24.1713C200.836 24.276 200.805 24.302 200.76 24.2367C200.451 23.793 199.642 23.6474 199.085 23.9356C198.683 24.1433 198.426 24.6357 198.574 24.9127C198.683 25.1167 198.79 25.1876 198.767 25.0404C198.729 24.7974 198.808 24.6022 199.039 24.3711C199.619 23.7913 200.47 24.0023 200.746 24.7944C200.827 25.0274 200.811 25.1844 200.674 25.4924C200.543 25.7887 200.487 25.8425 200.454 25.7037C200.382 25.4042 199.959 25.3009 199.534 25.4787C198.9 25.7433 198.859 25.713 198.278 24.5497C197.687 23.3664 197.316 22.9778 197.082 23.298C197.001 23.408 196.886 23.4486 196.775 23.4059C196.672 23.3663 196.561 23.3954 196.512 23.4754C196.451 23.5742 196.541 23.6645 196.833 23.7951C197.057 23.8952 197.381 24.1294 197.554 24.3157C197.9 24.6884 198.471 25.736 198.471 25.9993C198.471 26.0912 198.559 26.1894 198.667 26.2176C198.829 26.2602 198.848 26.3193 198.777 26.5667C198.705 26.8189 198.732 26.8966 198.955 27.0721C199.246 27.3005 199.5 27.3433 199.5 27.1639C199.5 27.0793 199.538 27.0798 199.641 27.1657C199.831 27.3228 200.146 27.192 200.09 26.9792C200.057 26.8544 200.115 26.8112 200.313 26.8133C200.513 26.8155 200.581 26.7641 200.581 26.6103C200.581 26.4366 200.502 26.3994 200.074 26.3723C199.602 26.3424 199.577 26.3527 199.714 26.5202C199.845 26.681 199.84 26.6928 199.672 26.6295C199.568 26.5906 199.465 26.5588 199.443 26.5588C199.421 26.5588 199.43 26.4893 199.463 26.4044C199.502 26.3018 199.458 26.2489 199.331 26.2467C199.148 26.2436 199.149 26.2366 199.34 26.0923C199.596 25.8984 199.715 25.8997 199.64 26.0956C199.592 26.2213 199.686 26.25 200.146 26.25C200.593 26.25 200.724 26.2122 200.772 26.0699C200.805 25.9707 200.995 25.6656 201.194 25.3918C201.725 24.6613 201.83 24.1827 201.632 23.4108C201.543 23.0665 201.409 22.6337 201.334 22.4489L201.197 22.113L200.992 22.3436ZM190.845 22.5802C190.492 22.7561 190.256 23.2144 190.4 23.4439C190.55 23.6832 190.889 23.7262 191.055 23.527C191.167 23.3919 191.155 23.3676 190.975 23.3676C190.523 23.3676 190.599 22.9065 191.085 22.7022C191.298 22.6127 191.344 22.557 191.239 22.5166C191.156 22.4849 190.979 22.5135 190.845 22.5802ZM195.243 22.5115C195.205 22.5502 195.313 22.6406 195.484 22.7124C195.871 22.8752 195.94 23.3676 195.576 23.3676C195.39 23.3676 195.377 23.3916 195.489 23.527C195.713 23.7965 196.047 23.6711 196.083 23.3042C196.107 23.0503 196.047 22.927 195.792 22.7123C195.455 22.4291 195.36 22.3944 195.243 22.5115ZM196.061 22.6985C196.241 22.9734 196.372 23.0105 196.616 22.8561C196.737 22.7799 196.689 22.7261 196.388 22.6004C195.885 22.3902 195.863 22.3966 196.061 22.6985ZM192.019 22.8862C191.859 23.0744 191.554 23.3578 191.342 23.5161C190.925 23.8269 190.854 23.9853 191.131 23.9853C191.227 23.9853 191.528 23.7484 191.8 23.4589C192.224 23.0072 192.294 22.9653 192.294 23.1632C192.294 23.3108 192.072 23.6068 191.676 23.9853C191.337 24.3106 191.059 24.6108 191.059 24.6525C191.059 24.8071 191.635 24.5791 191.918 24.3125C192.369 23.8868 192.633 23.3002 192.556 22.891C192.474 22.4571 192.384 22.4563 192.019 22.8862ZM193.953 22.8166C193.846 23.0517 193.865 23.1628 194.092 23.6269C194.34 24.1343 194.959 24.7059 195.259 24.7059C195.511 24.7059 195.367 24.4552 194.822 23.9444C194.514 23.6555 194.232 23.3033 194.195 23.1618C194.14 22.9505 194.223 23.0013 194.656 23.4449C194.947 23.742 195.275 23.9853 195.387 23.9853C195.56 23.9853 195.572 23.9567 195.469 23.7914C195.402 23.6848 195.217 23.5204 195.058 23.4261C194.898 23.3319 194.646 23.0949 194.497 22.8995C194.171 22.4725 194.114 22.4638 193.953 22.8166ZM188.862 22.8991C188.815 23.0215 188.872 23.0588 189.108 23.0588C189.276 23.0588 189.507 23.1051 189.619 23.1618C189.732 23.2184 189.921 23.3145 190.041 23.3755C190.386 23.552 190.228 23.2495 189.867 23.0442C189.394 22.7755 188.935 22.7091 188.862 22.8991ZM197.132 22.8467C196.507 23.0357 195.933 23.4706 196.309 23.4706C196.365 23.4706 196.412 23.4243 196.412 23.3676C196.412 23.311 196.528 23.2647 196.669 23.2647C196.811 23.2647 196.926 23.2184 196.926 23.1618C196.926 23.1051 197.092 23.0588 197.295 23.0588C197.534 23.0588 197.65 23.0158 197.624 22.9366C197.57 22.775 197.444 22.7522 197.132 22.8467ZM193.088 24.3275C192.991 24.4745 192.629 24.8977 192.283 25.2679C191.936 25.6382 191.693 25.9398 191.742 25.9383C191.791 25.9366 192.039 25.828 192.294 25.6968C192.647 25.5151 192.82 25.4798 193.022 25.5489C193.174 25.6012 193.39 25.6011 193.532 25.5488C193.708 25.4834 193.865 25.5082 194.091 25.6375C194.889 26.0942 194.935 25.9836 194.248 25.2594C193.879 24.8701 193.506 24.4409 193.419 24.3059L193.263 24.0603L193.088 24.3275ZM192.112 24.6566C191.927 24.9082 191.57 25.2653 191.318 25.4504C190.898 25.7598 190.72 26.0441 190.947 26.0441C191.254 26.0441 192.706 24.587 192.706 24.2787C192.706 24.0575 192.418 24.2406 192.112 24.6566ZM193.735 24.2903C193.735 24.4461 194.915 25.6636 195.262 25.8656C195.486 25.9964 195.595 26.0142 195.647 25.9292C195.688 25.8627 195.635 25.7666 195.525 25.7092C195.419 25.6532 195.02 25.2887 194.64 24.8993C193.988 24.2317 193.735 24.0617 193.735 24.2903ZM189.309 24.8618C189.309 25.2714 189.332 25.3294 189.455 25.2271C189.61 25.0986 189.681 25.1807 190.894 26.8937C191.342 27.5257 191.574 27.6811 191.574 27.3487C191.574 27.2802 191.205 26.7052 190.755 26.0708C190.305 25.4364 189.981 24.8901 190.035 24.857C190.205 24.752 190.141 24.6274 189.885 24.5631C189.748 24.5288 189.563 24.4725 189.473 24.4379C189.337 24.3858 189.309 24.4588 189.309 24.8618ZM196.694 24.531C196.492 24.611 196.427 24.6946 196.468 24.823C196.505 24.9391 196.329 25.2699 195.973 25.7552C195.669 26.1689 195.107 26.959 194.725 27.511C194.342 28.0631 193.996 28.5147 193.956 28.5147C193.916 28.5147 193.607 28.0055 193.269 27.383C192.931 26.7605 192.626 26.2509 192.591 26.2506C192.556 26.2503 192.239 26.6871 191.887 27.2211C191.456 27.8747 191.199 28.1742 191.101 28.1366C190.991 28.0943 190.956 28.182 190.956 28.5037C190.956 28.9686 190.991 28.9885 191.458 28.7919C191.701 28.6898 191.749 28.6287 191.658 28.5379C191.568 28.4472 191.658 28.2395 192.033 27.6756C192.607 26.8127 192.502 26.7641 193.342 28.281C193.767 29.0489 193.9 29.2161 194 29.1104C194.069 29.0375 194.737 28.121 195.486 27.0735C196.527 25.6159 196.892 25.1766 197.041 25.2013C197.205 25.2285 197.235 25.1681 197.235 24.8153C197.235 24.3675 197.181 24.3389 196.694 24.531ZM193.234 25.7306L192.887 25.7868L193.091 26.0372L193.294 26.2877L193.477 26.0083C193.696 25.6747 193.681 25.6581 193.234 25.7306ZM186.607 25.9092C186.508 25.9351 186.345 25.9351 186.246 25.9092C186.147 25.8833 186.228 25.8621 186.426 25.8621C186.625 25.8621 186.706 25.8833 186.607 25.9092ZM200.248 25.9058C200.179 25.934 200.04 25.9357 199.939 25.9096C199.839 25.8834 199.896 25.8604 200.066 25.8583C200.236 25.8563 200.318 25.8776 200.248 25.9058ZM189.518 26.2679C189.322 26.3242 188.886 26.4011 188.549 26.4388C188.162 26.482 187.918 26.5608 187.888 26.6521C187.848 26.7713 187.965 26.7851 188.549 26.7306C189.407 26.6503 190.153 26.4452 190.21 26.2735C190.26 26.1255 190.021 26.1237 189.518 26.2679ZM196.26 26.2451C196.18 26.3753 197.1 26.6422 197.918 26.726C198.484 26.784 198.574 26.7701 198.574 26.6245C198.574 26.4945 198.472 26.4559 198.132 26.4559C197.889 26.4559 197.424 26.3864 197.097 26.3015C196.4 26.1199 196.34 26.1159 196.26 26.2451ZM193.597 26.739C193.361 27.2116 193.34 27.4853 193.54 27.4853C193.593 27.4853 193.689 27.3695 193.754 27.2279C193.906 26.8938 193.993 26.9035 194.215 27.2794C194.418 27.6228 194.509 27.661 194.594 27.4381C194.651 27.2907 194.065 26.2677 193.917 26.256C193.876 26.2527 193.732 26.47 193.597 26.739ZM199.324 26.7647C199.354 26.8779 199.366 26.9706 199.352 26.9706C199.338 26.9706 199.242 26.8779 199.14 26.7647C198.983 26.5916 198.979 26.5588 199.112 26.5588C199.199 26.5588 199.294 26.6515 199.324 26.7647ZM191.929 28.1107C191.847 28.2426 192.506 29.2436 192.626 29.1697C192.799 29.0627 193.129 28.2816 193.068 28.1232C193.016 27.9868 192.963 28.0102 192.767 28.2553L192.53 28.5531L192.349 28.2766C192.154 27.9801 192.038 27.9341 191.929 28.1107ZM194.907 28.1495C194.875 28.2317 194.879 28.3475 194.916 28.4068C194.953 28.4661 194.934 28.5147 194.874 28.5147C194.642 28.5147 194.78 28.7058 195.089 28.8134C195.565 28.9795 195.588 28.9654 195.588 28.5078C195.588 28.1359 195.565 28.0964 195.382 28.1544C195.264 28.1919 195.176 28.1729 195.176 28.1098C195.176 27.9469 194.973 27.9767 194.907 28.1495Z" fill="#243688"/>
</g>
<defs>
<filter id="filter0_i_76_6244" x="0" y="0" width="210.824" height="35" filterUnits="userSpaceOnUse" color-interpolation-filters="sRGB">
<feFlood flood-opacity="0" result="BackgroundImageFix"/>
<feBlend mode="normal" in="SourceGraphic" in2="BackgroundImageFix" result="shape"/>
<feColorMatrix in="SourceAlpha" type="matrix" values="0 0 0 0 0 0 0 0 0 0 0 0 0 0 0 0 0 0 127 0" result="hardAlpha"/>
<feOffset/>
<feGaussianBlur stdDeviation="15"/>
<feComposite in2="hardAlpha" operator="arithmetic" k2="-1" k3="1"/>
<feColorMatrix type="matrix" values="0 0 0 0 1 0 0 0 0 1 0 0 0 0 1 0 0 0 0.3 0"/>
<feBlend mode="normal" in2="shape" result="effect1_innerShadow_76_6244"/>
</filter>
</defs>
</svg>
