<svg width="197" height="55" viewBox="0 0 197 55" fill="none" xmlns="http://www.w3.org/2000/svg">
<g filter="url(#filter0_i_76_6243)">
<path fill-rule="evenodd" clip-rule="evenodd" d="M173.667 5.74081C170.708 8.89811 166.358 13.5359 164.001 16.0471C161.643 18.5581 159.148 21.2669 158.457 22.0666C157.765 22.8663 157.17 23.4338 157.135 23.3277C157.055 23.0885 157.608 21.4161 161.624 9.7355C163.381 4.62515 164.819 0.366468 164.819 0.271532C164.819 0.176793 161.706 0.0990991 157.903 0.0990991C151.501 0.0990991 150.977 0.124865 150.849 0.445946C150.773 0.636613 149.775 3.51306 148.632 6.83784C147.488 10.1626 145.213 16.7626 143.576 21.5045C141.939 26.2464 139.68 32.8018 138.557 36.0721C134.347 48.3279 132.683 53.1387 132.404 53.8643C132.245 54.2754 132.116 54.7001 132.116 54.8083C132.116 54.9358 134.57 54.9867 139.083 54.953L146.049 54.9009L149.064 46.2797L152.079 37.6585L155.187 35.0074C156.896 33.5492 158.348 32.409 158.412 32.4738C158.477 32.5386 159.712 36.3178 161.156 40.8722C162.601 45.4268 163.977 49.6437 164.215 50.2432C164.777 51.655 165.695 53.0846 166.448 53.7184C167.776 54.8355 168.007 54.871 174.481 54.956C179.395 55.0206 180.476 54.9869 180.475 54.7697C180.475 54.6238 178.372 48.7072 175.802 41.6216C168.748 22.1736 169.458 24.3052 169.895 23.891C170.101 23.6966 175.754 18.565 182.458 12.4877C189.162 6.41032 194.981 1.11447 195.388 0.719063L196.128 0H187.588H179.048L173.667 5.74081ZM29.4637 0.41364C19.3508 1.88566 11.7143 7.13375 6.12824 16.4505C3.29718 21.1723 1.48506 26.1106 0.382875 32.1081C-0.129864 34.8977 -0.127089 40.0539 0.388028 42.1171C1.55403 46.7881 4.55772 50.5788 8.72187 52.6351C12.0712 54.2891 13.7573 54.6161 19.9357 54.8103C22.8245 54.9011 27.3454 54.981 29.982 54.9877L34.776 55L36.0766 51.0586C37.4356 46.9401 37.6126 45.8391 37.1094 44.6346C36.7358 43.7404 35.6336 42.8332 34.2718 42.2989C33.1766 41.8692 32.7673 41.8388 26.4763 41.7209C19.4739 41.5897 19.2046 41.5546 17.722 40.5813C15.6521 39.222 14.7017 35.9888 15.1639 31.8796C15.5209 28.7086 16.8979 24.5157 18.5065 21.7027C20.7255 17.822 23.841 14.76 26.6412 13.7076C27.7112 13.3052 28.1978 13.2805 36.8817 13.1832C45.5935 13.0856 46.0386 13.0626 46.8929 12.6672C47.9562 12.1751 48.8855 11.2878 49.5812 10.1008C49.9675 9.44157 53.233 0.566054 53.233 0.175207C53.233 0.133387 48.3052 0.108613 42.2826 0.120306C34.1392 0.136162 30.8533 0.211477 29.4637 0.41364ZM58.5229 2.72523C56.9687 7.31708 51.5531 23.1934 49.6841 28.6379C48.6927 31.5256 47.8817 33.9165 47.8817 33.9508C47.8817 33.9852 50.446 33.986 53.5799 33.9525L59.2781 33.8919L60.3529 33.2973C62.4599 32.1317 63.1838 30.65 66.434 20.8475L68.9848 13.1542L73.4467 13.2168C78.2984 13.2848 78.6012 13.3477 79.6824 14.5137C81.0555 15.9946 81.1607 19.4066 79.9624 23.5856C77.6276 31.7276 73.39 38.1526 68.831 40.4628C66.5319 41.6278 66.8865 41.5887 57.3952 41.717C48.942 41.8311 48.5262 41.8543 47.3927 42.2739C45.9597 42.8047 44.9586 43.5786 44.367 44.6134C44.1236 45.0392 43.2411 47.4387 42.4054 49.9459C41.57 52.4532 40.8454 54.6161 40.7953 54.7523C40.6867 55.0472 46.7089 55.0666 57.6925 54.8064C65.0468 54.6321 66.7073 54.4565 69.9855 53.5066C78.0617 51.1663 84.9097 44.3637 90.5724 33.0569C95.4009 23.4153 97.1894 14.9202 95.6544 8.91892C94.5786 4.71375 92.4689 2.40434 88.5174 1.10733C85.8501 0.231694 83.5575 0.0990991 71.078 0.0990991H59.4118L58.5229 2.72523ZM111.305 0.235856C110.115 0.434847 108.362 1.14023 107.699 1.68627C107.304 2.01211 106.798 2.65804 106.575 3.12142C106.231 3.83811 103.377 12.7162 103.377 13.071C103.377 13.1382 110.847 13.1679 119.976 13.1372C136.506 13.0813 136.58 13.0793 137.628 12.6498C138.941 12.1115 139.888 11.3984 140.406 10.5582C140.723 10.0447 141.939 6.34532 143.731 0.445946C143.831 0.117532 142.989 0.100486 127.818 0.126054C119.009 0.140919 111.578 0.19027 111.305 0.235856ZM103.851 21.2048C102.333 21.535 101.275 22.0739 100.476 22.924C99.5947 23.8613 99.4314 24.2599 97.9323 29.1304C97.195 31.526 96.5471 33.6019 96.4926 33.7438C96.4117 33.9547 99.4301 33.9918 113.016 33.947L129.638 33.8919L130.756 33.4269C132.222 32.8169 133.165 32.0185 133.651 30.9742C133.869 30.5079 134.651 28.164 135.389 25.7658C136.127 23.3676 136.772 21.294 136.823 21.1577C136.962 20.7848 105.575 20.8298 103.851 21.2048ZM97.0318 41.9302C94.9004 42.2442 93.1951 43.2845 92.4648 44.7163C92.0935 45.4437 89.3051 54.1723 89.3051 54.6066C89.3051 54.7481 94.4789 54.7955 105.805 54.7578L122.305 54.7027L123.461 54.2363C124.824 53.6865 125.854 52.8371 126.36 51.8443C126.704 51.1696 129.539 42.309 129.539 41.9076C129.539 41.6763 98.6091 41.6977 97.0318 41.9302Z" fill="#00B43C"/>
</g>
<defs>
<filter id="filter0_i_76_6243" x="0" y="0" width="196.129" height="55" filterUnits="userSpaceOnUse" color-interpolation-filters="sRGB">
<feFlood flood-opacity="0" result="BackgroundImageFix"/>
<feBlend mode="normal" in="SourceGraphic" in2="BackgroundImageFix" result="shape"/>
<feColorMatrix in="SourceAlpha" type="matrix" values="0 0 0 0 0 0 0 0 0 0 0 0 0 0 0 0 0 0 127 0" result="hardAlpha"/>
<feOffset/>
<feGaussianBlur stdDeviation="10"/>
<feComposite in2="hardAlpha" operator="arithmetic" k2="-1" k3="1"/>
<feColorMatrix type="matrix" values="0 0 0 0 1 0 0 0 0 1 0 0 0 0 1 0 0 0 0.3 0"/>
<feBlend mode="normal" in2="shape" result="effect1_innerShadow_76_6243"/>
</filter>
</defs>
</svg>
