<svg width="15" height="16" viewBox="0 0 15 16" fill="none" xmlns="http://www.w3.org/2000/svg">
<path fill-rule="evenodd" clip-rule="evenodd" d="M5.95255 0.0479406C3.91652 0.253115 2.33935 0.831159 1.4998 1.67981C1.06403 2.12033 0.642421 2.85665 0.41182 3.57991C0.0839146 4.60838 -0.021808 5.61461 0.00361805 7.46465C0.0245408 8.98463 0.100784 9.56839 0.396925 10.4749C0.858092 11.8866 1.69635 12.8351 2.94957 13.3632C3.12468 13.437 3.32639 13.516 3.39782 13.5389L3.52772 13.5805V14.4895C3.52772 15.4945 3.55394 15.672 3.72607 15.8326C3.86055 15.9581 3.95383 16 4.09839 16C4.41812 16 4.62876 15.7971 5.98719 14.1805L6.07379 14.0775H7.26888C8.51337 14.0775 8.89462 14.0491 9.86691 13.8844C10.3697 13.7992 11.3113 13.5403 11.7 13.3804C13.2083 12.7599 14.1339 11.4805 14.4538 9.57421C14.5752 8.85068 14.6264 8.0668 14.6267 6.92423C14.6269 6.24673 14.6102 5.66048 14.5847 5.45201C14.3575 3.59331 13.8307 2.3076 12.9822 1.5408C11.9118 0.57347 9.70656 -0.0126109 7.18536 0.000205988C6.74546 0.00245761 6.1907 0.0239348 5.95255 0.0479406ZM7.99633 1.13946C9.91232 1.25405 11.4895 1.72471 12.2089 2.39659C12.8802 3.02351 13.2639 3.98991 13.4577 5.54159C13.5793 6.51602 13.5143 8.51172 13.3298 9.46814C13.0672 10.829 12.3104 11.8402 11.2275 12.2777C10.7266 12.48 9.75574 12.7104 8.9126 12.8271C8.32503 12.9085 7.30186 12.9601 6.79774 12.934L6.34388 12.9105L5.96789 13.3727C4.62762 15.0205 4.21949 15.4804 4.09728 15.4804C3.95307 15.4804 3.9434 15.3817 3.9434 13.9081V12.5123L3.79618 12.4687C3.09343 12.2607 2.33724 11.7151 1.94507 11.133C1.49752 10.4688 1.22951 9.63525 1.13504 8.61395C1.08641 8.08797 1.11197 5.80662 1.17124 5.38273C1.38407 3.8607 1.89495 2.80452 2.69244 2.2379C3.05079 1.9833 3.27273 1.86334 3.69853 1.69412C4.33131 1.44267 5.21079 1.2465 6.02363 1.17559C6.8833 1.10059 7.23808 1.09411 7.99633 1.13946ZM7.0697 2.90916C7.01157 2.96996 7.01462 3.16481 7.07448 3.21448C7.10091 3.23641 7.2986 3.26984 7.51379 3.28872C8.01323 3.33254 8.27141 3.3933 8.67538 3.5621C9.75398 4.01277 10.4911 4.94803 10.7505 6.19498C10.78 6.33686 10.8198 6.64863 10.8388 6.88778C10.8756 7.34767 10.902 7.40919 11.0632 7.40919C11.1768 7.40919 11.2525 7.30129 11.2525 7.13934C11.2525 6.56085 11.0667 5.69706 10.8279 5.16505C10.3343 4.06563 9.39441 3.27684 8.23881 2.99223C7.80303 2.88492 7.13804 2.83767 7.0697 2.90916ZM4.35244 3.37033C4.17588 3.43338 3.76549 3.74389 3.58297 3.95253C3.33987 4.23042 3.23594 4.47162 3.23539 4.7592C3.23494 4.9863 3.25212 5.04121 3.50669 5.62521C4.02935 6.82429 4.37811 7.44768 4.9601 8.22324C5.24727 8.60591 6.1094 9.45813 6.50825 9.75358C7.59232 10.5566 9.13925 11.3582 9.60499 11.3582C9.95998 11.3582 10.4082 11.0396 10.7394 10.5519C10.9906 10.182 11.0461 9.91455 10.9177 9.69299C10.7765 9.44954 9.54801 8.5324 9.25353 8.45065C8.93626 8.36253 8.74269 8.44774 8.48233 8.7902C8.18778 9.17768 8.06599 9.22674 7.69575 9.10712C6.81461 8.82248 6.00842 8.06829 5.57358 7.12192C5.24474 6.40625 5.26074 6.28625 5.73473 5.91241C6.08709 5.63449 6.15342 5.31262 5.94146 4.90895C5.77003 4.5824 5.54729 4.24943 5.2146 3.82246C4.8319 3.33126 4.68204 3.25266 4.35244 3.37033ZM7.42722 3.96493C7.3453 4.04689 7.35797 4.2114 7.45074 4.26956C7.49363 4.29641 7.63 4.32904 7.75384 4.34203C8.27019 4.39614 8.79406 4.64288 9.16069 5.00459C9.36098 5.20218 9.43993 5.31348 9.56598 5.57616C9.73943 5.93756 9.78682 6.12355 9.81945 6.57034C9.84314 6.89544 9.89095 6.99351 10.0257 6.99351C10.069 6.99351 10.1289 6.96901 10.1589 6.93909C10.2743 6.82363 10.197 6.08468 10.0204 5.61551C9.69478 4.75047 8.91887 4.13339 7.9427 3.96317C7.56363 3.89704 7.49491 3.89728 7.42722 3.96493ZM7.72263 5.05022C7.56554 5.20731 7.67407 5.37594 7.95642 5.41339C8.45503 5.47955 8.74972 5.79124 8.81155 6.31802C8.83854 6.54772 8.90183 6.6471 9.02113 6.6471C9.17257 6.6471 9.21972 6.55416 9.19627 6.30184C9.12505 5.53546 8.71629 5.1063 7.95646 5.00006C7.82077 4.98107 7.78384 4.98901 7.72263 5.05022Z" fill="white"/>
</svg>
