<svg width="14" height="14" viewBox="0 0 14 14" fill="none" xmlns="http://www.w3.org/2000/svg">
<path fill-rule="evenodd" clip-rule="evenodd" d="M6.31672 0.0352352C5.15598 0.153875 4.05855 0.550035 3.09265 1.19916C0.493948 2.94552 -0.627917 6.21362 0.349732 9.18947C0.528013 9.73208 0.837628 10.3808 1.13049 10.8251C1.23197 10.9791 1.31495 11.1155 1.31495 11.1283C1.31491 11.141 1.1037 11.7056 0.845547 12.3829C0.587428 13.0602 0.389291 13.6194 0.405206 13.6255C0.421158 13.6316 0.764497 13.5406 1.16824 13.4233C1.57197 13.306 2.18332 13.1289 2.52681 13.0299L3.15131 12.8498L3.34149 12.9713C3.68755 13.1925 4.28761 13.4731 4.74648 13.6283C6.81531 14.328 9.07613 14.0298 10.8827 12.8191C11.6829 12.2828 12.2793 11.6864 12.8156 10.8862C14.1932 8.83063 14.3782 6.21131 13.3039 3.97092C12.0376 1.33012 9.21329 -0.260739 6.31672 0.0352352ZM4.85773 3.10395C4.97819 3.13741 5.13946 3.27484 5.64661 3.77634C6.33582 4.45783 6.41411 4.55665 6.45188 4.79294C6.50482 5.12389 6.34901 5.38254 5.97983 5.57651C5.43161 5.8646 5.33312 6.20385 5.62645 6.79386C5.76915 7.08093 5.92666 7.29771 6.20074 7.58444C6.52062 7.9191 6.81061 8.14191 7.1572 8.31924C7.40036 8.44364 7.46754 8.46111 7.70254 8.46111C8.05998 8.46111 8.23534 8.35164 8.38248 8.03668C8.50062 7.78379 8.60005 7.66375 8.76075 7.57997C8.91122 7.50153 9.26021 7.50085 9.40491 7.57868C9.46744 7.61233 9.81907 7.944 10.1863 8.31572C10.816 8.9531 10.8564 9.00274 10.8956 9.18685C10.944 9.41451 10.8879 9.69927 10.7652 9.84833C10.5296 10.1344 9.84067 10.7579 9.68316 10.8275C9.06207 11.1023 7.97965 10.7966 6.82826 10.0213C5.8286 9.34824 4.68358 8.20049 4.00494 7.1912C3.3829 6.26603 2.9958 5.21385 3.0781 4.67192C3.1374 4.28152 3.20424 4.16617 3.62151 3.73428C4.25184 3.08178 4.43728 2.98724 4.85773 3.10395Z" fill="white"/>
</svg>
